# This file uses centimeters as units for non-parametric coordinates.

mtllib Aeye_Cone_Light.mtl
v 1.136439 -1.000000 -0.369251
v 0.966713 -1.000000 -0.702358
v 0.702358 -1.000000 -0.966713
v 0.369251 -1.000000 -1.136439
v 0.000000 -1.000000 -1.194922
v -0.369251 -1.000000 -1.136439
v -0.702358 -1.000000 -0.966712
v -0.966712 -1.000000 -0.702358
v -1.136438 -1.000000 -0.369251
v -1.194922 -1.000000 0.000000
v -1.136438 -1.000000 0.369251
v -0.966712 -1.000000 0.702358
v -0.702358 -1.000000 0.966712
v -0.369251 -1.000000 1.136438
v -0.000000 -1.000000 1.194922
v 0.369251 -1.000000 1.136438
v 0.702357 -1.000000 0.966712
v 0.966712 -1.000000 0.702358
v 1.136438 -1.000000 0.369251
v 1.194922 -1.000000 0.000000
v 0.164385 4.021523 -0.053412
v 0.139835 4.021523 -0.101596
v 0.101596 4.021523 -0.139835
v 0.053412 4.021523 -0.164385
v -0.000000 4.021523 -0.172845
v -0.053412 4.021523 -0.164385
v -0.101596 4.021523 -0.139835
v -0.139835 4.021523 -0.101596
v -0.164385 4.021523 -0.053412
v -0.172845 4.021523 -0.000000
v -0.164385 4.021523 0.053412
v -0.139834 4.021523 0.101595
v -0.101596 4.021523 0.139834
v -0.053412 4.021523 0.164385
v -0.000000 4.021523 0.172845
v 0.053412 4.021523 0.164385
v 0.101596 4.021523 0.139834
v 0.139834 4.021523 0.101595
v 0.164385 4.021523 0.053412
v 0.172845 4.021523 -0.000000
v 0.000000 -1.000000 0.000000
v -0.000000 4.021523 -0.000000
v 0.174316 3.970220 0.056639
v 0.148282 3.970220 0.107733
v 0.107733 3.970220 0.148282
v 0.056639 3.970220 0.174316
v -0.000000 3.970220 0.183287
v -0.056639 3.970220 0.174316
v -0.107734 3.970220 0.148282
v -0.148282 3.970220 0.107733
v -0.174316 3.970220 0.056639
v -0.183287 3.970220 -0.000000
v -0.174316 3.970220 -0.056639
v -0.148283 3.970220 -0.107734
v -0.107734 3.970220 -0.148283
v -0.056639 3.970220 -0.174317
v -0.000000 3.970220 -0.183288
v 0.056639 3.970220 -0.174317
v 0.107733 3.970220 -0.148283
v 0.148283 3.970220 -0.107734
v 0.174316 3.970220 -0.056639
v 0.183287 3.970220 -0.000000
v 1.124975 -0.940781 0.365526
v 0.956961 -0.940781 0.695273
v 0.695273 -0.940781 0.956961
v 0.365526 -0.940781 1.124975
v -0.000000 -0.940781 1.182869
v -0.365526 -0.940781 1.124975
v -0.695273 -0.940781 0.956961
v -0.956961 -0.940781 0.695273
v -1.124975 -0.940781 0.365527
v -1.182869 -0.940781 0.000000
v -1.124975 -0.940781 -0.365526
v -0.956961 -0.940781 -0.695273
v -0.695273 -0.940781 -0.956961
v -0.365527 -0.940781 -1.124975
v 0.000000 -0.940781 -1.182869
v 0.365527 -0.940781 -1.124975
v 0.695273 -0.940781 -0.956961
v 0.956961 -0.940781 -0.695273
v 1.124976 -0.940781 -0.365527
v 1.182868 -0.940781 0.000000
v -0.548459 2.037438 0.178205
v -0.576684 2.037438 -0.000000
v -0.548459 2.037438 -0.178205
v -0.466547 2.037438 -0.338967
v -0.338967 2.037438 -0.466548
v -0.178205 2.037438 -0.548459
v -0.000000 2.037438 -0.576685
v 0.178205 2.037438 -0.548459
v 0.338967 2.037438 -0.466548
v 0.466548 2.037438 -0.338967
v 0.548459 2.037438 -0.178205
v 0.576684 2.037438 -0.000000
v 0.548459 2.037438 0.178205
v 0.466547 2.037438 0.338966
v 0.338966 2.037438 0.466547
v 0.178205 2.037438 0.548459
v -0.000000 2.037438 0.576684
v -0.178205 2.037438 0.548459
v -0.338967 2.037438 0.466547
v -0.466547 2.037438 0.338966
v -0.281453 3.416761 0.091450
v -0.295938 3.416761 -0.000000
v -0.281453 3.416761 -0.091450
v -0.239419 3.416761 -0.173948
v -0.173948 3.416761 -0.239419
v -0.091450 3.416761 -0.281454
v -0.000000 3.416761 -0.295938
v 0.091450 3.416761 -0.281454
v 0.173948 3.416761 -0.239419
v 0.239419 3.416761 -0.173948
v 0.281453 3.416761 -0.091450
v 0.295938 3.416761 -0.000000
v 0.281453 3.416761 0.091450
v 0.239419 3.416761 0.173948
v 0.173948 3.416761 0.239419
v 0.091450 3.416761 0.281453
v -0.000000 3.416761 0.295938
v -0.091450 3.416761 0.281453
v -0.173948 3.416761 0.239419
v -0.239419 3.416761 0.173948
v -0.952365 0.191695 -0.000000
v -0.905753 0.191695 -0.294297
v -0.770480 0.191695 -0.559786
v -0.559786 0.191695 -0.770480
v -0.294297 0.191695 -0.905754
v -0.000000 0.191695 -0.952366
v 0.294297 0.191695 -0.905754
v 0.559787 0.191695 -0.770480
v 0.770480 0.191695 -0.559787
v 0.905754 0.191695 -0.294297
v 0.952365 0.191695 -0.000000
v 0.905753 0.191695 0.294297
v 0.770480 0.191695 0.559786
v 0.559786 0.191695 0.770480
v 0.294297 0.191695 0.905753
v -0.000000 0.191695 0.952365
v -0.294297 0.191695 0.905753
v -0.559786 0.191695 0.770480
v -0.770480 0.191695 0.559786
v -0.905753 0.191695 0.294297
vt 0.648603 0.107966
vt 0.626409 0.064408
vt 0.591842 0.029841
vt 0.548284 0.007647
vt 0.500000 -0.000000
vt 0.451716 0.007647
vt 0.408159 0.029841
vt 0.373591 0.064409
vt 0.351397 0.107966
vt 0.343750 0.156250
vt 0.351397 0.204534
vt 0.373591 0.248091
vt 0.408159 0.282659
vt 0.451716 0.304853
vt 0.500000 0.312500
vt 0.548284 0.304853
vt 0.591841 0.282659
vt 0.626409 0.248091
vt 0.648603 0.204534
vt 0.656250 0.156250
vt 0.375000 0.312500
vt 0.387500 0.312500
vt 0.400000 0.312500
vt 0.412500 0.312500
vt 0.425000 0.312500
vt 0.437500 0.312500
vt 0.450000 0.312500
vt 0.462500 0.312500
vt 0.475000 0.312500
vt 0.487500 0.312500
vt 0.500000 0.312500
vt 0.512500 0.312500
vt 0.525000 0.312500
vt 0.537500 0.312500
vt 0.550000 0.312500
vt 0.562500 0.312500
vt 0.575000 0.312500
vt 0.587500 0.312500
vt 0.600000 0.312500
vt 0.612500 0.312500
vt 0.625000 0.312500
vt 0.375000 0.687500
vt 0.387500 0.687500
vt 0.400000 0.687500
vt 0.412500 0.687500
vt 0.425000 0.687500
vt 0.437500 0.687500
vt 0.450000 0.687500
vt 0.462500 0.687500
vt 0.475000 0.687500
vt 0.487500 0.687500
vt 0.500000 0.687500
vt 0.512500 0.687500
vt 0.525000 0.687500
vt 0.537500 0.687500
vt 0.550000 0.687500
vt 0.562500 0.687500
vt 0.575000 0.687500
vt 0.587500 0.687500
vt 0.600000 0.687500
vt 0.612500 0.687500
vt 0.625000 0.687500
vt 0.648603 0.795466
vt 0.626409 0.751908
vt 0.591842 0.717341
vt 0.548284 0.695147
vt 0.500000 0.687500
vt 0.451716 0.695147
vt 0.408159 0.717341
vt 0.373591 0.751909
vt 0.351397 0.795466
vt 0.343750 0.843750
vt 0.351397 0.892034
vt 0.373591 0.935591
vt 0.408159 0.970159
vt 0.451716 0.992353
vt 0.500000 1.000000
vt 0.548284 0.992353
vt 0.591841 0.970159
vt 0.626409 0.935591
vt 0.648603 0.892034
vt 0.656250 0.843750
vt 0.500000 0.156250
vt 0.500000 0.843750
vt 0.600000 0.683669
vt 0.587500 0.683669
vt 0.575000 0.683669
vt 0.562500 0.683669
vt 0.550000 0.683669
vt 0.537500 0.683669
vt 0.525000 0.683669
vt 0.512500 0.683669
vt 0.500000 0.683669
vt 0.487500 0.683669
vt 0.475000 0.683669
vt 0.462500 0.683669
vt 0.450000 0.683669
vt 0.437500 0.683669
vt 0.425000 0.683669
vt 0.412500 0.683669
vt 0.400000 0.683669
vt 0.387500 0.683669
vt 0.625000 0.683669
vt 0.375000 0.683669
vt 0.612500 0.683669
vt 0.600000 0.316922
vt 0.587500 0.316922
vt 0.575000 0.316922
vt 0.562500 0.316922
vt 0.550000 0.316922
vt 0.537500 0.316922
vt 0.525000 0.316922
vt 0.512500 0.316922
vt 0.500000 0.316922
vt 0.487500 0.316922
vt 0.475000 0.316922
vt 0.462500 0.316922
vt 0.450000 0.316922
vt 0.437500 0.316922
vt 0.425000 0.316922
vt 0.412500 0.316922
vt 0.400000 0.316922
vt 0.387500 0.316922
vt 0.625000 0.316922
vt 0.375000 0.316922
vt 0.612500 0.316922
vt 0.500000 0.539331
vt 0.487500 0.539331
vt 0.475000 0.539331
vt 0.462500 0.539331
vt 0.450000 0.539331
vt 0.437500 0.539331
vt 0.425000 0.539331
vt 0.412500 0.539331
vt 0.400000 0.539331
vt 0.387500 0.539331
vt 0.625000 0.539331
vt 0.375000 0.539331
vt 0.612500 0.539331
vt 0.600000 0.539331
vt 0.587500 0.539331
vt 0.575000 0.539331
vt 0.562500 0.539331
vt 0.550000 0.539331
vt 0.537500 0.539331
vt 0.525000 0.539331
vt 0.512500 0.539331
vt 0.500000 0.642337
vt 0.487500 0.642337
vt 0.475000 0.642337
vt 0.462500 0.642337
vt 0.450000 0.642337
vt 0.437500 0.642337
vt 0.425000 0.642337
vt 0.412500 0.642337
vt 0.400000 0.642337
vt 0.387500 0.642337
vt 0.625000 0.642337
vt 0.375000 0.642337
vt 0.612500 0.642337
vt 0.600000 0.642337
vt 0.587500 0.642337
vt 0.575000 0.642337
vt 0.562500 0.642337
vt 0.550000 0.642337
vt 0.537500 0.642337
vt 0.525000 0.642337
vt 0.512500 0.642337
vt 0.487500 0.401494
vt 0.475000 0.401494
vt 0.462500 0.401494
vt 0.450000 0.401494
vt 0.437500 0.401494
vt 0.425000 0.401494
vt 0.412500 0.401494
vt 0.400000 0.401494
vt 0.387500 0.401494
vt 0.625000 0.401494
vt 0.375000 0.401494
vt 0.612500 0.401494
vt 0.600000 0.401494
vt 0.587500 0.401494
vt 0.575000 0.401494
vt 0.562500 0.401494
vt 0.550000 0.401494
vt 0.537500 0.401494
vt 0.525000 0.401494
vt 0.512500 0.401494
vt 0.500000 0.401494
vn 0.103801 -0.994026 -0.033727
vn 0.088298 -0.994026 -0.064152
vn 0.792762 0.199450 -0.575976
vn 0.931948 0.199450 -0.302807
vn 0.064152 -0.994026 -0.088298
vn 0.575975 0.199450 -0.792763
vn 0.033727 -0.994026 -0.103801
vn 0.302808 0.199450 -0.931948
vn 0.000000 -0.994026 -0.109143
vn 0.000000 0.199450 -0.979908
vn -0.033727 -0.994026 -0.103801
vn -0.302808 0.199450 -0.931948
vn -0.064152 -0.994026 -0.088298
vn -0.575976 0.199450 -0.792762
vn -0.088298 -0.994026 -0.064152
vn -0.792763 0.199450 -0.575975
vn -0.103801 -0.994026 -0.033727
vn -0.931948 0.199450 -0.302808
vn -0.109143 -0.994026 -0.000000
vn -0.979908 0.199450 0.000000
vn -0.103801 -0.994026 0.033727
vn -0.931948 0.199450 0.302808
vn -0.088298 -0.994026 0.064152
vn -0.792762 0.199450 0.575976
vn -0.064152 -0.994026 0.088298
vn -0.575975 0.199450 0.792762
vn -0.033727 -0.994026 0.103801
vn -0.302808 0.199450 0.931948
vn -0.000000 -0.994026 0.109143
vn 0.000000 0.199450 0.979908
vn 0.033727 -0.994026 0.103801
vn 0.302808 0.199450 0.931948
vn 0.064152 -0.994026 0.088298
vn 0.575976 0.199450 0.792762
vn 0.088298 -0.994026 0.064152
vn 0.792762 0.199450 0.575975
vn 0.103801 -0.994026 0.033727
vn 0.931948 0.199450 0.302808
vn 0.109142 -0.994026 0.000000
vn 0.979908 0.199450 0.000001
vn 0.000000 -1.000000 -0.000000
vn 0.493700 0.854710 -0.160410
vn 0.419969 0.854707 -0.305126
vn 0.000000 1.000000 -0.000000
vn 0.305122 0.854707 -0.419971
vn 0.160413 0.854710 -0.493699
vn 0.000000 0.854708 -0.519109
vn -0.160413 0.854710 -0.493698
vn -0.305125 0.854708 -0.419967
vn -0.419969 0.854708 -0.305122
vn -0.493699 0.854710 -0.160413
vn -0.519110 0.854708 0.000000
vn -0.493699 0.854709 0.160414
vn -0.419967 0.854709 0.305122
vn -0.305124 0.854709 0.419966
vn -0.160412 0.854710 0.493699
vn 0.000001 0.854709 0.519108
vn 0.160412 0.854710 0.493699
vn 0.305123 0.854707 0.419973
vn 0.419967 0.854707 0.305129
vn 0.493700 0.854709 0.160413
vn 0.519109 0.854708 0.000000
vn 0.792763 0.199450 0.575974
vn 0.931948 0.199450 0.302809
vn 0.575975 0.199450 0.792763
vn 0.302808 0.199450 0.931948
vn 0.000001 0.199450 0.979908
vn -0.302808 0.199450 0.931948
vn -0.575977 0.199450 0.792761
vn -0.792764 0.199450 0.575973
vn -0.931947 0.199450 0.302810
vn -0.979908 0.199450 0.000000
vn -0.931948 0.199450 -0.302809
vn -0.792764 0.199450 -0.575974
vn -0.575975 0.199450 -0.792763
vn -0.302809 0.199450 -0.931948
vn 0.000000 0.199450 -0.979908
vn 0.302809 0.199450 -0.931948
vn 0.575973 0.199450 -0.792764
vn 0.792763 0.199450 -0.575974
vn 0.931949 0.199450 -0.302806
vn 0.979908 0.199450 0.000000
vn 0.931948 0.199450 0.302808
vn 0.792762 0.199450 0.575975
vn 0.575976 0.199450 0.792762
vn 0.302808 0.199450 0.931948
vn 0.000000 0.199450 0.979908
vn -0.302808 0.199450 0.931948
vn -0.575976 0.199450 0.792762
vn -0.792762 0.199450 0.575975
vn -0.931948 0.199450 0.302808
vn -0.979908 0.199450 0.000000
vn -0.931948 0.199450 -0.302808
vn -0.792762 0.199450 -0.575975
vn -0.575976 0.199450 -0.792762
vn -0.302809 0.199450 -0.931948
vn 0.000000 0.199450 -0.979908
vn 0.302808 0.199450 -0.931948
vn 0.575975 0.199450 -0.792762
vn 0.792762 0.199450 -0.575976
vn 0.931948 0.199450 -0.302807
vn 0.979908 0.199450 0.000001
vn -0.979908 0.199450 0.000000
vn -0.931948 0.199450 0.302809
vn -0.931948 0.199450 0.302809
vn -0.979908 0.199450 0.000000
vn -0.931948 0.199450 -0.302808
vn -0.931948 0.199450 -0.302808
vn -0.792763 0.199450 -0.575975
vn -0.792763 0.199450 -0.575974
vn -0.575975 0.199450 -0.792762
vn -0.575975 0.199450 -0.792762
vn -0.302809 0.199450 -0.931948
vn -0.302809 0.199450 -0.931948
vn 0.000000 0.199450 -0.979908
vn -0.000000 0.199450 -0.979908
vn 0.302808 0.199450 -0.931948
vn 0.302808 0.199450 -0.931948
vn 0.575975 0.199450 -0.792763
vn 0.575974 0.199450 -0.792763
vn 0.792762 0.199450 -0.575975
vn 0.792763 0.199450 -0.575975
vn 0.931948 0.199450 -0.302807
vn 0.931949 0.199450 -0.302806
vn 0.979908 0.199450 0.000001
vn 0.979908 0.199450 0.000001
vn 0.931948 0.199450 0.302808
vn 0.931948 0.199450 0.302808
vn 0.792763 0.199450 0.575975
vn 0.792763 0.199450 0.575975
vn 0.575976 0.199450 0.792762
vn 0.575975 0.199450 0.792763
vn 0.302808 0.199450 0.931948
vn 0.302808 0.199450 0.931948
vn 0.000000 0.199450 0.979908
vn 0.000001 0.199450 0.979908
vn -0.302808 0.199450 0.931948
vn -0.302808 0.199450 0.931948
vn -0.575976 0.199450 0.792762
vn -0.575976 0.199450 0.792762
vn -0.792763 0.199450 0.575975
vn -0.792763 0.199450 0.575974
s 1
usemtl initialShadingGroup
f 1/21/1 2/22/2 80/123/3 81/125/4
f 2/22/2 3/23/5 79/122/6 80/123/3
f 3/23/5 4/24/7 78/121/8 79/122/6
f 4/24/7 5/25/9 77/120/10 78/121/8
f 5/25/9 6/26/11 76/119/12 77/120/10
f 6/26/11 7/27/13 75/118/14 76/119/12
f 7/27/13 8/28/15 74/117/16 75/118/14
f 8/28/15 9/29/17 73/116/18 74/117/16
f 9/29/17 10/30/19 72/115/20 73/116/18
f 10/30/19 11/31/21 71/114/22 72/115/20
f 11/31/21 12/32/23 70/113/24 71/114/22
f 12/32/23 13/33/25 69/112/26 70/113/24
f 13/33/25 14/34/27 68/111/28 69/112/26
f 14/34/27 15/35/29 67/110/30 68/111/28
f 15/35/29 16/36/31 66/109/32 67/110/30
f 16/36/31 17/37/33 65/108/34 66/109/32
f 17/37/33 18/38/35 64/107/36 65/108/34
f 18/38/35 19/39/37 63/106/38 64/107/36
f 19/39/37 20/40/39 82/126/40 63/106/38
f 20/40/39 1/41/1 81/124/4 82/126/40
f 2/2/2 1/1/1 41/83/41
f 3/3/5 2/2/2 41/83/41
f 4/4/7 3/3/5 41/83/41
f 5/5/9 4/4/7 41/83/41
f 6/6/11 5/5/9 41/83/41
f 7/7/13 6/6/11 41/83/41
f 8/8/15 7/7/13 41/83/41
f 9/9/17 8/8/15 41/83/41
f 10/10/19 9/9/17 41/83/41
f 11/11/21 10/10/19 41/83/41
f 12/12/23 11/11/21 41/83/41
f 13/13/25 12/12/23 41/83/41
f 14/14/27 13/13/25 41/83/41
f 15/15/29 14/14/27 41/83/41
f 16/16/31 15/15/29 41/83/41
f 17/17/33 16/16/31 41/83/41
f 18/18/35 17/17/33 41/83/41
f 19/19/37 18/18/35 41/83/41
f 20/20/39 19/19/37 41/83/41
f 1/1/1 20/20/39 41/83/41
f 21/81/42 22/80/43 42/84/44
f 22/80/43 23/79/45 42/84/44
f 23/79/45 24/78/46 42/84/44
f 24/78/46 25/77/47 42/84/44
f 25/77/47 26/76/48 42/84/44
f 26/76/48 27/75/49 42/84/44
f 27/75/49 28/74/50 42/84/44
f 28/74/50 29/73/51 42/84/44
f 29/73/51 30/72/52 42/84/44
f 30/72/52 31/71/53 42/84/44
f 31/71/53 32/70/54 42/84/44
f 32/70/54 33/69/55 42/84/44
f 33/69/55 34/68/56 42/84/44
f 34/68/56 35/67/57 42/84/44
f 35/67/57 36/66/58 42/84/44
f 36/66/58 37/65/59 42/84/44
f 37/65/59 38/64/60 42/84/44
f 38/64/60 39/63/61 42/84/44
f 39/63/61 40/82/62 42/84/44
f 40/82/62 21/81/42 42/84/44
f 44/86/63 43/85/64 39/60/61 38/59/60
f 45/87/65 44/86/63 38/59/60 37/58/59
f 46/88/66 45/87/65 37/58/59 36/57/58
f 47/89/67 46/88/66 36/57/58 35/56/57
f 48/90/68 47/89/67 35/56/57 34/55/56
f 49/91/69 48/90/68 34/55/56 33/54/55
f 50/92/70 49/91/69 33/54/55 32/53/54
f 51/93/71 50/92/70 32/53/54 31/52/53
f 52/94/72 51/93/71 31/52/53 30/51/52
f 53/95/73 52/94/72 30/51/52 29/50/51
f 54/96/74 53/95/73 29/50/51 28/49/50
f 55/97/75 54/96/74 28/49/50 27/48/49
f 56/98/76 55/97/75 27/48/49 26/47/48
f 57/99/77 56/98/76 26/47/48 25/46/47
f 58/100/78 57/99/77 25/46/47 24/45/46
f 59/101/79 58/100/78 24/45/46 23/44/45
f 60/102/80 59/101/79 23/44/45 22/43/43
f 61/104/81 60/102/80 22/43/43 21/42/42
f 62/105/82 61/103/81 21/62/42 40/61/62
f 43/85/64 62/105/82 40/61/62 39/60/61
f 64/107/36 63/106/38 134/181/83 135/182/84
f 65/108/34 64/107/36 135/182/84 136/183/85
f 66/109/32 65/108/34 136/183/85 137/184/86
f 67/110/30 66/109/32 137/184/86 138/185/87
f 68/111/28 67/110/30 138/185/87 139/186/88
f 69/112/26 68/111/28 139/186/88 140/187/89
f 70/113/24 69/112/26 140/187/89 141/188/90
f 71/114/22 70/113/24 141/188/90 142/189/91
f 72/115/20 71/114/22 142/189/91 123/169/92
f 73/116/18 72/115/20 123/169/92 124/170/93
f 74/117/16 73/116/18 124/170/93 125/171/94
f 75/118/14 74/117/16 125/171/94 126/172/95
f 76/119/12 75/118/14 126/172/95 127/173/96
f 77/120/10 76/119/12 127/173/96 128/174/97
f 78/121/8 77/120/10 128/174/97 129/175/98
f 79/122/6 78/121/8 129/175/98 130/176/99
f 80/123/3 79/122/6 130/176/99 131/177/100
f 81/125/4 80/123/3 131/177/100 132/179/101
f 82/126/40 81/124/4 132/178/101 133/180/102
f 63/106/38 82/126/40 133/180/102 134/181/83
f 84/128/103 83/127/104 103/148/105 104/149/106
f 85/129/107 84/128/103 104/149/106 105/150/108
f 86/130/109 85/129/107 105/150/108 106/151/110
f 87/131/111 86/130/109 106/151/110 107/152/112
f 88/132/113 87/131/111 107/152/112 108/153/114
f 89/133/115 88/132/113 108/153/114 109/154/116
f 90/134/117 89/133/115 109/154/116 110/155/118
f 91/135/119 90/134/117 110/155/118 111/156/120
f 92/136/121 91/135/119 111/156/120 112/157/122
f 93/138/123 92/136/121 112/157/122 113/159/124
f 94/139/125 93/137/123 113/158/124 114/160/126
f 95/140/127 94/139/125 114/160/126 115/161/128
f 96/141/129 95/140/127 115/161/128 116/162/130
f 97/142/131 96/141/129 116/162/130 117/163/132
f 98/143/133 97/142/131 117/163/132 118/164/134
f 99/144/135 98/143/133 118/164/134 119/165/136
f 100/145/137 99/144/135 119/165/136 120/166/138
f 101/146/139 100/145/137 120/166/138 121/167/140
f 102/147/141 101/146/139 121/167/140 122/168/142
f 83/127/104 102/147/141 122/168/142 103/148/105
f 104/149/106 103/148/105 51/93/71 52/94/72
f 105/150/108 104/149/106 52/94/72 53/95/73
f 106/151/110 105/150/108 53/95/73 54/96/74
f 107/152/112 106/151/110 54/96/74 55/97/75
f 108/153/114 107/152/112 55/97/75 56/98/76
f 109/154/116 108/153/114 56/98/76 57/99/77
f 110/155/118 109/154/116 57/99/77 58/100/78
f 111/156/120 110/155/118 58/100/78 59/101/79
f 112/157/122 111/156/120 59/101/79 60/102/80
f 113/159/124 112/157/122 60/102/80 61/104/81
f 114/160/126 113/158/124 61/103/81 62/105/82
f 115/161/128 114/160/126 62/105/82 43/85/64
f 116/162/130 115/161/128 43/85/64 44/86/63
f 117/163/132 116/162/130 44/86/63 45/87/65
f 118/164/134 117/163/132 45/87/65 46/88/66
f 119/165/136 118/164/134 46/88/66 47/89/67
f 120/166/138 119/165/136 47/89/67 48/90/68
f 121/167/140 120/166/138 48/90/68 49/91/69
f 122/168/142 121/167/140 49/91/69 50/92/70
f 103/148/105 122/168/142 50/92/70 51/93/71
f 124/170/93 123/169/92 84/128/103 85/129/107
f 125/171/94 124/170/93 85/129/107 86/130/109
f 126/172/95 125/171/94 86/130/109 87/131/111
f 127/173/96 126/172/95 87/131/111 88/132/113
f 128/174/97 127/173/96 88/132/113 89/133/115
f 129/175/98 128/174/97 89/133/115 90/134/117
f 130/176/99 129/175/98 90/134/117 91/135/119
f 131/177/100 130/176/99 91/135/119 92/136/121
f 132/179/101 131/177/100 92/136/121 93/138/123
f 133/180/102 132/178/101 93/137/123 94/139/125
f 134/181/83 133/180/102 94/139/125 95/140/127
f 135/182/84 134/181/83 95/140/127 96/141/129
f 136/183/85 135/182/84 96/141/129 97/142/131
f 137/184/86 136/183/85 97/142/131 98/143/133
f 138/185/87 137/184/86 98/143/133 99/144/135
f 139/186/88 138/185/87 99/144/135 100/145/137
f 140/187/89 139/186/88 100/145/137 101/146/139
f 141/188/90 140/187/89 101/146/139 102/147/141
f 142/189/91 141/188/90 102/147/141 83/127/104
f 123/169/92 142/189/91 83/127/104 84/128/103
