# This file uses centimeters as units for non-parametric coordinates.

v -7.204806 6.998777 15.816921
v -11.039007 6.749269 3.504036
v -3.491976 16.003229 10.116449
v -2.968148 5.081889 20.365447
v -4.147136 -0.130660 -13.194554
v 0.379944 7.179894 -8.549190
v 7.026156 7.069130 6.931095
v 9.446921 0.000000 11.984405
v 15.017938 -0.793205 -19.161742
v -5.776122 17.267649 10.526989
v -8.259410 10.537471 10.396334
v -8.045722 11.521732 6.363984
v -5.003325 6.396615 17.612010
v -2.277474 12.817972 15.184800
v -12.693502 0.000002 19.599941
v -9.058988 0.000002 26.516497
v -3.466841 10.230219 -1.524447
v 3.354054 11.033188 9.151047
v 6.405464 6.646162 13.595108
v 3.588282 0.000013 26.631225
v -15.087852 0.000013 -12.378883
v -4.767466 6.189122 -3.788786
v -0.802783 3.408507 -13.052330
v 3.577674 9.173239 -1.878206
v 9.384764 4.498275 8.920146
v 4.378180 -0.632849 -28.002938
v 4.286384 5.766220 -14.940577
v 10.169364 5.327763 -1.797369
v 18.620418 -0.212951 -8.308042
v 7.772773 0.000004 16.754558
v 6.776043 2.368951 17.509058
v 5.065977 3.486124 19.793375
v 0.077130 2.734451 23.244453
v -5.315205 2.919424 22.678982
v -6.619396 3.053299 21.652873
v -9.364027 2.624309 20.235935
v -11.080874 2.692782 19.629165
v -13.063533 3.145875 17.867679
v -13.387951 3.145182 15.502721
v -10.145540 4.500149 6.085226
v -11.687377 3.858477 3.782350
v -7.841028 4.308225 -0.044293
v -13.108736 1.158800 -3.177204
v -13.527008 -0.242058 -3.311703
v -8.138222 -0.082992 -12.897008
v -8.082384 4.201174 -6.547936
v -6.804945 4.951843 -1.339876
v -7.736726 6.422132 -1.083650
v -7.293407 8.776228 0.342316
v -8.874042 10.316746 5.131940
v -8.110051 11.292716 7.320869
v -7.621770 12.711412 10.675475
v -6.485445 11.829520 13.242672
v -5.467774 11.248751 14.548967
v -3.531999 9.796102 16.287478
v -2.497564 9.042927 17.590633
v 2.517758 5.997017 16.397409
v 5.763360 5.131344 16.566353
v 7.998112 3.422189 13.157038
v 8.973492 2.170647 9.862448
v 18.386771 -0.097919 3.366011
v 15.410896 -0.052636 10.979576
v 13.672587 0.656120 5.460805
v 11.509269 2.427689 0.964845
v 11.437170 2.710450 -3.967263
v 9.997681 2.539878 -10.597657
v 7.209992 2.318127 -16.689133
v 4.915257 1.958006 -18.921861
v 1.442961 1.825985 -16.211994
v -0.635281 -0.324903 -16.260563
v -7.863096 9.207651 12.433358
v -7.439492 10.981530 11.844460
v 0.379944 7.179894 -8.549190
v -12.693502 0.000002 19.599941
v -16.962690 0.000013 15.597754
v -3.466841 10.230219 -1.524447
v -10.145540 4.500149 6.085226
v -11.687377 3.858477 3.782350
v -13.558874 2.100811 2.937249
v -13.387951 3.145182 15.502721
v -10.145540 4.500149 6.085226
v -13.558874 2.100811 2.937249
v -16.962690 0.000013 15.597754
v -16.962690 0.000013 15.597754
v -13.558874 2.100811 2.937249
v -15.929571 -0.461549 2.357011
v -8.045722 11.521732 6.363984
v -3.491976 16.003229 10.116449
v -1.602910 13.826181 4.622913
v -8.045722 11.521732 6.363984
v -1.602910 13.826181 4.622913
v -3.466841 10.230219 -1.524447
v -3.466841 10.230219 -1.524447
v -1.602910 13.826181 4.622913
v 0.379944 7.179894 -8.549190
v -15.929571 -0.461549 2.357011
v -13.558874 2.100811 2.937249
v -13.108736 1.158800 -3.177204
v -13.527008 -0.242058 -3.311703
v -13.558874 2.100811 2.937249
v -7.841028 4.308225 -0.044293
v -13.108736 1.158800 -3.177204
v -3.491976 16.003229 10.116449
v 3.354054 11.033188 9.151047
v -1.602910 13.826181 4.622913
v 3.354054 11.033188 9.151047
v 3.577674 9.173239 -1.878206
v -1.602910 13.826181 4.622913
vt 0.792089 0.487007
vt 0.711357 0.523322
vt 0.646218 0.424272
vt 0.660101 0.321991
vt 0.626647 0.568787
vt 0.753920 0.312027
vt 0.669146 0.221217
vt 0.860208 0.438221
vt 0.614166 0.209277
vt 0.887249 0.481527
vt 0.627705 0.372957
vt 0.591153 0.289733
vt 0.631905 0.050734
vt 0.592521 0.428311
vt 0.568629 0.369035
vt 0.564388 0.228870
vt 0.569885 0.066123
vt 0.575933 0.000318
vt 0.517968 0.545602
vt 0.517967 0.342323
vt 0.517967 0.249874
vt 0.531999 0.091461
vt 0.361500 0.000355
vt 0.227271 0.184919
vt 0.435694 0.358438
vt 0.010318 0.671460
vt 0.440150 0.281713
vt 0.485174 0.270939
vt 0.050519 0.799547
vt 0.006327 0.767202
vt 0.446407 0.177198
vt 0.412030 0.298590
vt 0.131474 0.828078
vt 0.053231 0.890014
vt 0.000000 1.000000
vt 0.514639 0.189403
vt 0.399719 0.267545
vt 0.391118 0.164239
vt 0.160519 0.682678
vt 0.625188 0.760818
vt 0.657936 0.768002
vt 0.613347 0.868486
vt 0.700254 0.690929
vt 0.631170 0.694504
vt 0.715268 0.792648
vt 0.547165 0.683930
vt 0.449257 0.672601
vt 0.668432 0.651553
vt 0.702042 0.650972
vt 0.536997 0.561793
vt 0.756517 0.702246
vt 0.746769 0.811653
vt 0.578404 0.509499
vt 0.622691 0.557977
vt 0.799699 0.819987
vt 0.616530 0.461350
vt 0.817764 0.669098
vt 0.854637 0.649141
vt 0.840767 0.794700
vt 0.239061 0.924716
vt 0.126849 0.884261
vt 0.133516 0.852670
vt 0.227595 0.807492
vt 0.401845 0.840717
vt 0.145141 0.791771
vt 0.323724 0.729846
vt 0.278860 0.666174
vt 0.857356 0.483260
vt 0.829805 0.623984
vt 0.879015 0.596432
vt 0.515935 0.536426
vt 0.378730 0.376314
vt 0.434771 0.548235
vt 0.282397 0.457536
vt 0.209680 0.192076
vt 0.178089 0.325532
vt 0.145289 0.201756
vt 0.237336 0.440894
vt 0.000000 0.260047
vt 0.152060 0.140935
vt 0.078588 0.464020
vt 0.049738 0.000349
vt 0.296152 0.514583
vt 0.236223 0.138785
vt 0.318798 0.607222
vt 0.223769 0.633530
vt 0.360137 0.709801
vt 0.441611 0.615153
vt 0.460384 0.652228
vt 0.759911 0.163395
vt 0.778095 0.219166
vt 0.665958 0.185203
vt 0.795582 0.184401
vt 0.790072 0.253299
vt 0.784442 0.089174
vt 0.789165 0.103570
vt 0.832161 0.188231
vt 0.804738 0.150596
vt 0.877709 0.250742
vt 0.890125 0.308166
vt 0.820026 0.306342
vt 0.757713 0.305212
vt 0.809290 0.058703
vt 0.835556 0.340646
vt 0.882854 0.004419
vt 0.942463 0.000359
vt 0.929231 0.057232
vt 0.957173 0.164753
vt 0.949162 0.392451
vt 0.940798 0.344087
vt 0.998874 0.373125
vt 0.989231 0.155749
vt 0.961939 0.162948
vt 0.984515 0.000000
vt 0.344948 0.239007
vt 0.767919 0.836442
vt 0.998874 0.266000
vt 0.512983 0.350144
vt 0.063425 0.006532
vt 0.126056 0.000358
vt 0.167873 0.020994
vt 0.269554 0.170732
vt 0.374244 0.000353
vt 0.466590 0.013140
vt 0.313668 0.227378
vt 0.322408 0.230396
vt 0.486612 0.000352
vt 0.528737 0.031881
vt 0.254151 0.000326
vt 0.231407 0.116496
vt 0.132135 0.055446
vt 0.785106 0.062461
vt 0.666471 0.116054
vt 0.618390 0.000347
vt 0.903255 0.369906
vt 0.950399 0.483357
vt 0.761095 0.312867
vt 0.500635 0.142805
vt 0.454543 0.108306
vt 0.559200 0.008492
vt 0.567917 0.014097
vt 0.025209 0.583476
vt 0.000000 0.463778
vt 0.109371 0.503209
vt 0.994418 0.513000
vt 0.877373 0.584461
vt 0.896266 0.452639
vt 0.956338 0.318100
vt 0.813949 0.151938
vt 0.975231 0.186269
vt 0.435694 0.358438
vt 0.140163 0.538869
vt 0.281985 0.008888
vt 0.083033 0.722676
vn -0.809464 0.343420 0.476267
vn -0.809464 0.343420 0.476267
vn -0.809464 0.343420 0.476267
vn 0.150355 0.540408 -0.827860
vn 0.150355 0.540408 -0.827860
vn 0.150355 0.540408 -0.827860
vn -0.929521 0.368624 -0.010315
vn -0.929521 0.368625 -0.010315
vn -0.929521 0.368624 -0.010315
vn -0.929521 0.368624 -0.010315
vn -0.852756 0.518039 0.066657
vn -0.852756 0.518039 0.066657
vn -0.852756 0.518039 0.066657
vn -0.619762 0.413830 0.666813
vn -0.619762 0.413830 0.666813
vn -0.619762 0.413830 0.666813
vn -0.533466 0.476476 0.698846
vn -0.533466 0.476476 0.698846
vn -0.533466 0.476476 0.698846
vn -0.393850 0.484120 0.781352
vn -0.393850 0.484120 0.781352
vn -0.393850 0.484120 0.781352
vn -0.393850 0.484120 0.781352
vn 0.499848 0.782237 0.371829
vn 0.499848 0.782237 0.371829
vn 0.499848 0.782237 0.371829
vn -0.512641 0.783083 0.352107
vn -0.512641 0.783083 0.352107
vn -0.512641 0.783083 0.352107
vn -0.512641 0.783083 0.352107
vn -0.244570 0.871732 0.424582
vn -0.244570 0.871732 0.424582
vn -0.244570 0.871732 0.424582
vn -0.630567 0.316144 0.708829
vn -0.630567 0.316143 0.708829
vn -0.630567 0.316143 0.708829
vn -0.630567 0.316143 0.708829
vn -0.721479 0.618860 0.310612
vn -0.721479 0.618860 0.310612
vn -0.721479 0.618860 0.310612
vn -0.604897 0.794204 -0.057782
vn -0.604897 0.794204 -0.057782
vn -0.604897 0.794204 -0.057782
vn -0.604897 0.794204 -0.057782
vn -0.722524 0.686666 -0.080312
vn -0.722524 0.686666 -0.080312
vn -0.722524 0.686666 -0.080312
vn -0.406311 0.792983 -0.453971
vn -0.406311 0.792983 -0.453971
vn -0.406311 0.792983 -0.453971
vn -0.399863 0.838824 -0.369437
vn -0.399863 0.838824 -0.369437
vn -0.399863 0.838824 -0.369437
vn -0.154577 0.872504 -0.463511
vn -0.154577 0.872504 -0.463511
vn -0.154577 0.872504 -0.463511
vn 0.585018 0.742436 0.326407
vn 0.585018 0.742436 0.326407
vn 0.585018 0.742436 0.326407
vn 0.463669 0.460529 0.756917
vn 0.463669 0.460529 0.756917
vn 0.463669 0.460529 0.756917
vn 0.463669 0.460529 0.756917
vn 0.586436 0.740476 0.328310
vn 0.586436 0.740476 0.328310
vn 0.586436 0.740476 0.328310
vn 0.759371 0.641048 0.111416
vn 0.759371 0.641048 0.111416
vn 0.759371 0.641048 0.111416
vn -0.015149 0.787647 0.615940
vn -0.015149 0.787647 0.615940
vn -0.015149 0.787647 0.615940
vn -0.015149 0.787647 0.615940
vn -0.777480 0.587566 -0.224256
vn -0.777480 0.587566 -0.224256
vn -0.777480 0.587566 -0.224256
vn -0.777480 0.587566 -0.224256
vn -0.430166 0.886921 -0.168310
vn -0.430166 0.886921 -0.168310
vn -0.430166 0.886921 -0.168310
vn -0.031768 0.828648 -0.558868
vn -0.031768 0.828648 -0.558868
vn -0.031768 0.828648 -0.558868
vn -0.031768 0.828648 -0.558868
vn -0.537630 0.526602 -0.658516
vn -0.537630 0.526602 -0.658516
vn -0.537630 0.526602 -0.658516
vn -0.537630 0.526602 -0.658516
vn -0.734484 0.495947 -0.463217
vn -0.734484 0.495947 -0.463217
vn -0.734484 0.495947 -0.463217
vn -0.636627 0.620012 -0.458576
vn -0.636627 0.620012 -0.458576
vn -0.636627 0.620012 -0.458576
vn 0.571269 0.811185 -0.125024
vn 0.571269 0.811185 -0.125024
vn 0.571269 0.811185 -0.125024
vn 0.699543 0.706832 -0.105015
vn 0.699543 0.706832 -0.105015
vn 0.699543 0.706832 -0.105015
vn 0.571370 0.811087 -0.125195
vn 0.571370 0.811087 -0.125195
vn 0.571370 0.811087 -0.125195
vn 0.202824 0.853951 0.479197
vn 0.202824 0.853951 0.479197
vn 0.202824 0.853951 0.479197
vn 0.890451 0.254500 0.377261
vn 0.890451 0.254500 0.377261
vn 0.890451 0.254500 0.377261
vn 0.810512 0.432084 0.395443
vn 0.810512 0.432084 0.395443
vn 0.810512 0.432084 0.395443
vn 0.688723 0.716687 0.109637
vn 0.688723 0.716687 0.109637
vn 0.688723 0.716687 0.109637
vn -0.538601 0.535107 -0.650822
vn -0.538601 0.535107 -0.650822
vn -0.538601 0.535107 -0.650822
vn -0.538601 0.535107 -0.650822
vn -0.508619 0.721147 -0.470376
vn -0.508619 0.721147 -0.470376
vn -0.508619 0.721147 -0.470376
vn -0.510590 0.574798 -0.639458
vn -0.510590 0.574798 -0.639458
vn -0.510590 0.574798 -0.639458
vn -0.510590 0.574798 -0.639458
vn 0.454936 0.678327 -0.576979
vn 0.454936 0.678327 -0.576979
vn 0.454936 0.678327 -0.576979
vn -0.068647 0.964429 -0.255274
vn -0.068647 0.964429 -0.255274
vn -0.068647 0.964429 -0.255274
vn 0.503798 0.863773 0.009096
vn 0.503798 0.863773 0.009096
vn 0.503798 0.863773 0.009096
vn 0.496118 0.846343 -0.193832
vn 0.496118 0.846343 -0.193832
vn 0.496118 0.846343 -0.193832
vn 0.621738 0.734480 -0.271994
vn 0.621738 0.734480 -0.271994
vn 0.621738 0.734480 -0.271994
vn 0.621738 0.734480 -0.271994
vn 0.690545 0.715491 0.105929
vn 0.690545 0.715490 0.105929
vn 0.690545 0.715490 0.105929
vn 0.745939 0.624804 0.230639
vn 0.745939 0.624804 0.230639
vn 0.745939 0.624804 0.230639
vn 0.745939 0.624804 0.230639
vn 0.876748 0.475271 0.073695
vn 0.876748 0.475271 0.073695
vn 0.876748 0.475271 0.073695
vn 0.876748 0.475271 0.073695
vn 0.812210 0.551378 -0.190519
vn 0.812210 0.551378 -0.190519
vn 0.812209 0.551378 -0.190519
vn 0.952811 -0.046937 0.299915
vn 0.952811 -0.046937 0.299915
vn 0.952811 -0.046937 0.299915
vn 0.851148 0.369854 0.372499
vn 0.851148 0.369854 0.372499
vn 0.851148 0.369854 0.372499
vn 0.851148 0.369853 0.372499
vn 0.202824 0.853951 0.479198
vn 0.202824 0.853951 0.479198
vn 0.202824 0.853951 0.479198
vn -0.043272 0.751395 0.658432
vn -0.043272 0.751395 0.658432
vn -0.043272 0.751396 0.658432
vn -0.257741 0.803995 0.535874
vn -0.257741 0.803995 0.535874
vn -0.257741 0.803995 0.535874
vn -0.257741 0.803995 0.535874
vn -0.378110 0.781874 0.495686
vn -0.378110 0.781874 0.495686
vn -0.378110 0.781874 0.495686
vn -0.250231 0.746424 0.616632
vn -0.250231 0.746424 0.616632
vn -0.250231 0.746424 0.616632
vn -0.250231 0.746424 0.616632
vn -0.314352 0.772030 0.552406
vn -0.314352 0.772030 0.552406
vn -0.314352 0.772030 0.552406
vn -0.492989 0.755882 0.430818
vn -0.492989 0.755882 0.430818
vn -0.492989 0.755882 0.430818
vn -0.492989 0.755882 0.430818
vn -0.492989 0.755882 0.430818
vn -0.867116 0.438980 -0.235385
vn -0.867116 0.438980 -0.235385
vn -0.867116 0.438980 -0.235385
vn -0.916795 0.083895 0.390446
vn -0.916795 0.083895 0.390446
vn -0.916795 0.083895 0.390446
vn -0.916795 0.083895 0.390446
vn -0.656087 -0.294714 -0.694761
vn -0.656087 -0.294714 -0.694761
vn -0.656087 -0.294714 -0.694761
vn -0.516250 0.856432 0.003184
vn -0.516250 0.856432 0.003184
vn -0.516250 0.856432 0.003184
vn -0.948550 0.266859 0.170410
vn -0.948550 0.266859 0.170410
vn -0.948550 0.266859 0.170410
vn -0.031769 0.828648 -0.558868
vn -0.031769 0.828648 -0.558868
vn -0.031769 0.828648 -0.558868
vn -0.516424 0.856323 0.004007
vn -0.516425 0.856323 0.004007
vn -0.516424 0.856323 0.004007
vn -0.516424 0.856323 0.004007
vn -0.516424 0.856323 0.004007
vn -0.753301 -0.081228 -0.652641
vn -0.753300 -0.081228 -0.652641
vn -0.753301 -0.081228 -0.652641
vn -0.753301 -0.081228 -0.652641
vn -0.753301 -0.081228 -0.652641
vn -0.704808 0.459903 -0.540125
vn -0.704808 0.459903 -0.540125
vn -0.704808 0.459903 -0.540125
vn -0.679316 0.603060 -0.418149
vn -0.679316 0.603060 -0.418149
vn -0.679316 0.603060 -0.418149
vn -0.867239 0.491316 0.080653
vn -0.867239 0.491316 0.080653
vn -0.867239 0.491316 0.080653
vn -0.867239 0.491316 0.080653
vn -0.960100 0.278803 0.021840
vn -0.960100 0.278803 0.021840
vn -0.960100 0.278803 0.021840
vn -0.871471 0.266568 0.411679
vn -0.871471 0.266568 0.411679
vn -0.871471 0.266568 0.411679
vn -0.871471 0.266568 0.411679
vn -0.536675 0.435047 0.722989
vn -0.536675 0.435047 0.722989
vn -0.536675 0.435047 0.722989
vn -0.536675 0.435047 0.722989
vn -0.366744 0.471261 0.802130
vn -0.366744 0.471261 0.802130
vn -0.366744 0.471261 0.802130
vn -0.537251 0.514117 0.668614
vn -0.537251 0.514117 0.668614
vn -0.537251 0.514117 0.668614
vn -0.537251 0.514117 0.668614
vn 0.464276 0.470505 0.750382
vn 0.464276 0.470505 0.750382
vn 0.464276 0.470505 0.750382
vn 0.203546 0.853701 0.479336
vn 0.203546 0.853701 0.479336
vn 0.203546 0.853701 0.479336
vn 0.203546 0.853701 0.479336
vn 0.203546 0.853701 0.479336
vn 0.828521 0.427253 0.361950
vn 0.828521 0.427253 0.361950
vn 0.828521 0.427253 0.361950
vn 0.828521 0.427253 0.361950
vn 0.915089 0.294736 0.275215
vn 0.915089 0.294736 0.275215
vn 0.915089 0.294736 0.275215
vn 0.915089 0.294736 0.275215
vn 0.915089 0.294736 0.275215
vn 0.272306 0.923759 0.269294
vn 0.272306 0.923759 0.269294
vn 0.272306 0.923759 0.269294
vn 0.272306 0.923759 0.269294
vn 0.186593 0.980143 0.067103
vn 0.186593 0.980143 0.067103
vn 0.186593 0.980143 0.067103
vn 0.326327 0.943493 0.057714
vn 0.326327 0.943493 0.057714
vn 0.326327 0.943493 0.057713
vn 0.326327 0.943493 0.057714
vn 0.400577 0.915077 0.046606
vn 0.400577 0.915077 0.046606
vn 0.400577 0.915077 0.046606
vn 0.333965 0.932670 -0.136359
vn 0.333965 0.932670 -0.136359
vn 0.333965 0.932670 -0.136359
vn 0.333965 0.932670 -0.136359
vn 0.315062 0.932207 -0.178120
vn 0.315062 0.932207 -0.178120
vn 0.315062 0.932207 -0.178120
vn 0.243862 0.921766 -0.301462
vn 0.243862 0.921766 -0.301462
vn 0.243862 0.921766 -0.301462
vn 0.243862 0.921766 -0.301462
vn -0.233859 0.938524 -0.253932
vn -0.233859 0.938524 -0.253933
vn -0.233859 0.938524 -0.253933
vn -0.680689 0.664655 -0.308054
vn -0.680689 0.664655 -0.308054
vn -0.680689 0.664655 -0.308054
vn -0.862636 0.217657 0.456601
vn -0.862636 0.217657 0.456601
vn -0.862636 0.217657 0.456601
s off
f 52/90/1 53/91/2 10/92/3
f 10/70/4 3/69/5 12/68/6
f 10/92/7 12/95/8 51/96/9 52/90/10
f 50/103/11 51/96/12 12/95/13
f 53/91/14 54/94/15 10/92/16
f 55/101/17 56/104/18 14/102/19
f 54/94/20 55/101/21 14/102/22 10/92/23
f 10/10/24 14/1/25 3/8/26
f 74/116/27 16/42/28 35/41/29 36/45/30
f 34/40/31 35/41/32 16/42/33
f 37/109/34 38/110/35 75/117/36 15/111/37
f 77/119/38 78/120/39 79/121/40
f 80/122/41 81/123/42 82/124/43 83/125/44
f 84/126/45 85/127/46 86/128/47
f 87/129/48 88/130/49 89/131/50
f 90/132/51 91/133/52 92/134/53
f 93/135/54 94/136/55 95/137/56
f 3/8/57 14/1/58 18/6/59
f 14/1/60 56/2/61 57/3/62 19/4/63
f 14/1/64 19/4/65 18/6/66
f 18/6/67 19/4/68 7/7/69
f 33/46/70 34/40/71 16/42/72 20/47/73
f 96/138/74 97/139/75 98/140/76 99/141/77
f 100/142/78 101/143/79 102/144/80
f 45/66/81 46/63/82 22/65/83 5/67/84
f 48/27/85 49/28/86 76/118/87 22/25/88
f 17/23/89 23/24/90 22/153/91
f 22/152/92 23/154/93 5/26/94
f 103/145/95 104/146/96 105/147/97
f 18/71/98 7/73/99 24/72/100
f 106/148/101 107/149/102 108/150/103
f 32/50/104 33/46/105 20/47/106
f 20/19/107 30/20/108 31/15/109
f 20/19/110 31/15/111 32/14/112
f 19/4/113 25/9/114 7/7/115
f 5/26/116 23/154/117 69/29/118 70/30/119
f 23/154/120 6/39/121 27/33/122
f 23/154/123 27/33/124 68/34/125 69/29/126
f 67/77/127 68/80/128 27/75/129
f 73/115/130 24/72/131 27/75/132
f 24/72/133 7/73/134 28/74/135
f 24/72/136 28/74/137 27/75/138
f 27/75/139 28/74/140 66/76/141 67/77/142
f 7/7/143 25/9/144 28/13/145
f 25/9/146 60/16/147 63/22/148 64/17/149
f 25/9/150 64/17/151 65/18/152 28/13/153
f 28/74/154 65/78/155 66/76/156
f 59/12/157 60/16/158 25/9/159
f 58/11/160 59/12/161 25/9/162 19/4/163
f 57/54/164 58/53/165 19/56/166
f 4/44/167 34/40/168 33/46/169
f 13/43/170 35/41/171 34/40/172 4/44/173
f 36/45/174 35/41/175 13/43/176
f 1/51/177 37/52/178 36/45/179 13/43/180
f 1/51/181 38/55/182 37/52/183
f 1/51/184 71/57/185 11/58/186 39/59/187 38/55/188
f 11/98/189 40/107/190 39/108/191
f 11/98/192 2/105/193 41/106/194 40/107/195
f 47/32/196 48/27/197 22/151/198
f 46/63/199 47/62/200 22/65/201
f 44/112/202 43/113/203 21/114/204
f 21/64/205 46/63/206 45/66/207
f 43/60/208 42/61/209 47/62/210 46/63/211 21/64/212
f 42/37/213 41/38/214 2/31/215 48/27/216 47/32/217
f 2/31/218 49/28/219 48/27/220
f 2/31/221 50/36/222 49/28/223
f 11/98/224 51/96/225 50/103/226 2/105/227
f 52/90/228 51/96/229 11/98/230
f 71/97/231 72/93/232 52/90/233 11/98/234
f 1/99/235 13/100/236 54/94/237 53/91/238
f 13/100/239 55/101/240 54/94/241
f 13/43/242 4/44/243 56/48/244 55/49/245
f 57/3/246 56/2/247 4/5/248
f 4/44/249 33/46/250 32/50/251 58/53/252 57/54/253
f 32/14/254 31/15/255 59/12/256 58/11/257
f 31/15/258 30/20/259 8/21/260 60/16/261 59/12/262
f 62/87/263 63/85/264 60/88/265 8/89/266
f 61/86/267 63/85/268 62/87/269
f 64/83/270 63/85/271 61/86/272 29/81/273
f 65/78/274 64/83/275 29/81/276
f 66/76/277 65/78/278 29/81/279 9/79/280
f 67/77/281 66/76/282 9/79/283
f 26/82/284 68/80/285 67/77/286 9/79/287
f 69/84/288 68/80/289 26/82/290
f 70/30/291 69/29/292 26/35/293
f 52/90/294 72/93/295 53/91/296
