# This file uses centimeters as units for non-parametric coordinates.

v 9.643968 4.392981 -24.577928
v 18.222629 8.098374 -6.943806
v -1.019862 19.602028 -16.613613
v -12.912376 3.382216 -22.589884
v 23.063871 -0.000020 -8.807822
v 12.860697 3.382216 11.919004
v 0.968185 14.666741 5.942730
v -9.695644 3.382216 13.907047
v 5.073660 12.755265 -23.275032
v 16.384109 5.962331 -17.591262
v 10.116067 9.135889 -12.909956
v -1.916588 3.396233 -26.787792
v -8.184627 10.143455 -22.106489
v 7.757900 -0.000018 -32.559491
v -12.209532 -0.000018 -30.799615
v 24.791833 -0.000002 -23.999532
v 21.426518 3.382216 -7.226187
v 11.284612 14.594745 0.348331
v -0.025839 18.004192 -5.335441
v -11.379376 12.671214 -10.933466
v 32.084969 -0.000002 10.235599
v 18.274859 6.024116 3.861092
v 8.132949 7.683660 11.435607
v -10.290883 11.413765 2.484113
v 16.810908 -0.000018 21.643080
v 1.864907 3.382216 16.116914
v -32.002236 0.000000 20.376136
v -7.602134 -0.000018 21.475801
v 0.563377 15.424410 1.349796
v 5.978890 17.426063 -2.317922
v 5.572452 15.277055 -9.516543
v 4.419828 13.189726 -14.804446
v 2.273943 14.513177 -20.214390
v -5.045957 10.642148 -19.700223
v -9.745891 9.651941 -16.614094
v -15.211921 9.347856 -11.557269
v -15.655289 11.631484 -5.406156
v -11.040126 12.192301 -3.013263
v -3.765147 22.091896 -11.194919
v -4.400746 15.842750 7.620912
v -8.278334 1.092440 19.031105
v -20.849899 1.690963 17.141872
v -17.202034 2.244067 16.083959
v -27.340881 2.110323 16.613304
v -24.258629 3.505742 14.125186
v -30.404216 1.950735 14.915740
v -5.201498 15.573086 -7.887373
v 0.764411 15.048140 3.630721
v -4.948925 11.543384 11.390919
v -3.810574 11.132232 11.166858
v -34.675699 -0.000009 5.548206
v -10.290883 11.413765 2.484113
v -11.379376 12.671214 -10.933466
v -11.040126 12.192301 -3.013263
v -5.937078 12.455264 -0.920612
v -0.025839 18.004192 -5.335441
v -5.937078 12.455264 -0.920612
v 0.563377 15.424410 1.349796
v -28.100970 0.000000 -18.163568
v -34.675699 -0.000009 5.548206
v -27.251607 5.799201 4.143305
v 0.563377 15.424410 1.349796
v -5.937078 12.455264 -0.920612
v -10.290883 11.413765 2.484113
v 0.764411 15.048140 3.630721
v -5.937078 12.455264 -0.920612
v -11.040126 12.192301 -3.013263
v -10.290883 11.413765 2.484113
v -27.251607 5.799201 4.143305
v -29.379048 3.202179 11.412760
v -24.258629 3.505742 14.125186
v -17.188202 6.706718 8.417660
v -27.251607 5.799201 4.143305
v -34.675699 -0.000009 5.548206
v -29.379048 3.202179 11.412760
v -28.100970 0.000000 -18.163568
v -27.251607 5.799201 4.143305
v -24.059456 6.153668 -2.566235
v -17.188202 6.706718 8.417660
v -23.978508 8.621850 2.801219
v -27.251607 5.799201 4.143305
v -11.379376 12.671214 -10.933466
v -5.937078 12.455264 -0.920612
v -5.201498 15.573086 -7.887373
v -17.188202 6.706718 8.417660
v -19.078942 6.706718 -13.034700
v -24.059456 6.153668 -2.566235
v -23.978508 8.621850 2.801219
v -20.925937 11.254327 1.549557
v 8.132949 7.683660 11.435607
v -5.125337 10.159795 12.604153
v 1.864907 3.382216 16.116914
v 1.864907 3.382216 16.116914
v -5.125337 10.159795 12.604153
v -9.695644 3.382216 13.907047
v -10.290883 11.413765 2.484113
v -20.925937 11.254327 1.549557
v -17.188202 6.706718 8.417660
v -10.290883 11.413765 2.484113
v -17.188202 6.706718 8.417660
v -5.125337 10.159795 12.604153
v -5.125337 10.159795 12.604153
v -17.188202 6.706718 8.417660
v -9.695644 3.382216 13.907047
v -20.925937 11.254327 1.549557
v -23.978508 8.621850 2.801219
v -17.188202 6.706718 8.417660
v -15.655289 11.631484 -5.406156
v -15.211921 9.347856 -11.557269
v -19.078942 6.706718 -13.034700
v -20.925937 11.254327 1.549557
v -11.040126 12.192301 -3.013263
v -15.655289 11.631484 -5.406156
v -20.925937 11.254327 1.549557
v -10.290883 11.413765 2.484113
v -19.078942 6.706718 -13.034700
v -12.912376 3.382216 -22.589884
v -12.209532 -0.000018 -30.799615
v -28.100970 0.000000 -18.163568
v -12.912376 3.382216 -22.589884
v -28.100970 0.000000 -18.163568
v -19.078942 6.706718 -13.034700
v -28.100970 0.000000 -18.163568
v -24.059456 6.153668 -2.566235
v -19.078942 6.706718 -13.034700
vt 0.000000 0.000033
vt 0.105034 0.198674
vt 0.000000 0.172808
vt 0.185157 0.114427
vt 0.000000 0.328906
vt 0.251491 0.219033
vt 0.187076 0.334989
vt 0.105034 0.450945
vt 0.453232 0.334989
vt 0.238610 0.471304
vt 0.000000 0.534203
vt 0.105034 0.555552
vt 0.455467 0.450945
vt 0.345706 0.532981
vt 0.491987 0.498025
vt 0.358473 0.541547
vt 0.117313 0.833177
vt 0.107066 0.583935
vt 0.159565 0.556390
vt 0.222218 0.640379
vt 0.066663 0.691618
vt 0.234766 0.547931
vt 0.182825 0.902438
vt 0.844086 0.788417
vt 0.924633 0.689990
vt 0.296190 0.611456
vt 0.844086 0.504342
vt 0.945523 0.474534
vt 0.850996 0.366755
vt 0.922660 0.235020
vt 0.874668 0.289531
vt 0.828138 0.248492
vt 0.838535 0.122787
vt 0.818207 0.447331
vt 0.922660 0.024379
vt 0.777555 0.313218
vt 0.702421 0.397783
vt 0.745178 0.524538
vt 0.964732 0.933370
vt 0.868619 0.952130
vt 0.867696 0.879286
vt 0.300105 0.670746
vt 0.271524 0.653081
vt 0.383873 0.536777
vt 0.383873 0.623906
vt 0.383873 0.722517
vt 0.475575 0.676666
vt 0.736631 0.000000
vt 0.838343 0.116137
vt 0.710549 0.232927
vt 0.577595 0.321956
vt 0.605260 0.346989
vt 0.663241 0.399457
vt 0.430897 0.649899
vt 0.547059 0.524689
vt 0.585055 0.483734
vt 0.511136 0.613487
vt 0.564194 0.589412
vt 0.513215 0.664959
vt 0.782387 0.170111
vt 0.821887 0.238446
vt 0.767351 0.248845
vt 0.714557 0.652225
vt 0.478118 0.690579
vt 0.670187 0.551816
vt 0.742743 0.776340
vt 0.838770 0.501005
vt 0.838770 0.709987
vt 0.838770 0.896904
vt 0.062402 0.938869
vt 0.000000 0.712089
vt 0.064284 0.781944
vt 0.118140 0.840467
vt 0.426400 0.260025
vt 0.354162 0.132877
vt 0.395559 0.067405
vt 0.439282 0.000002
vt 0.511490 0.088805
vt 0.547059 0.292567
vt 0.468945 0.359565
vt 0.342269 0.168603
vt 0.306940 0.215702
vt 0.951224 0.143952
vt 0.926723 0.000058
vt 0.996755 0.004270
vt 0.593713 0.779158
vt 0.531243 0.709673
vt 0.531243 0.859267
vt 0.439992 0.303867
vt 0.096588 0.992828
vt 0.000000 0.938992
vt 0.005879 0.862283
vt 0.564496 0.294304
vt 0.525340 0.124460
vt 0.606366 0.215341
vt 0.118054 0.000062
vt 0.379932 0.000061
vt 0.330149 0.162333
vt 1.000000 0.612964
vt 0.987135 0.711636
vt 0.914918 0.745763
vt 0.971850 0.595566
vt 0.996907 0.124677
vt 0.990987 0.201916
vt 0.926723 0.157843
vt 0.952823 0.893797
vt 0.845872 0.874230
vt 0.844086 0.791072
vt 0.962864 0.737173
vt 0.667005 0.409769
vt 0.723979 0.224056
vt 0.759511 0.326603
vt 0.106249 0.000026
vt 0.335801 0.175654
vt 0.248579 0.186389
vt 0.112408 0.865950
vt 0.162774 0.953529
vt 0.088540 0.977204
vt 0.749642 0.006854
vt 0.863817 0.000059
vt 0.833673 0.098166
vt 0.685902 0.534183
vt 0.277427 0.831228
vt 0.393465 0.816947
vt 0.441117 0.880683
vt 0.416197 0.948663
vt 0.281725 0.842553
vt 0.358954 0.927167
vt 0.147567 0.927167
vt 0.442702 0.879724
vt 0.600824 0.950486
vt 0.442702 0.982132
vt 0.697790 0.874463
vt 0.692949 0.991281
vt 0.554853 0.915653
vt 0.699448 0.872284
vt 0.537145 0.919055
vt 0.656211 0.749835
vt 0.684624 0.086278
vt 0.603471 0.201616
vt 0.525340 0.118157
vt 0.361609 0.545971
vt 0.292376 0.568051
vt 0.242011 0.480474
vt 0.768304 0.937307
vt 0.702421 0.869171
vt 0.707236 0.790367
vt 0.867576 0.926055
vt 0.986715 0.282835
vt 0.987635 0.355487
vt 0.867696 0.377656
vt 0.922766 0.238979
vt 0.239255 0.474461
vt 0.547824 0.113190
vt 0.448605 0.000061
vt 0.687554 0.000062
vt 0.395481 0.813732
vt 0.526348 0.707778
vt 0.532806 0.917877
vt 0.247913 0.630254
vt 0.390244 0.816617
vt 0.254156 0.833366
vt 0.926431 0.709140
vt 0.099077 0.570062
vt 0.099077 0.570062
vt 0.023611 0.642716
vt 0.838183 0.474981
vn 0.598534 0.432213 -0.674499
vn 0.598534 0.432213 -0.674499
vn 0.598534 0.432213 -0.674499
vn 0.774529 0.612656 -0.157345
vn 0.774529 0.612656 -0.157345
vn 0.774529 0.612656 -0.157345
vn 0.489315 0.869635 0.065625
vn 0.489315 0.869635 0.065625
vn 0.489315 0.869635 0.065625
vn 0.292569 0.926562 -0.236401
vn 0.292569 0.926563 -0.236401
vn 0.292569 0.926563 -0.236401
vn 0.162522 0.238019 -0.957566
vn 0.162522 0.238019 -0.957566
vn 0.162522 0.238019 -0.957566
vn -0.340384 0.301683 -0.890576
vn -0.340384 0.301683 -0.890576
vn -0.340384 0.301683 -0.890576
vn -0.166437 0.453036 -0.875818
vn -0.166437 0.453036 -0.875818
vn -0.166437 0.453036 -0.875818
vn -0.284657 0.424079 -0.859725
vn -0.284657 0.424079 -0.859725
vn -0.284657 0.424079 -0.859725
vn 0.017387 0.874197 -0.485261
vn 0.017387 0.874197 -0.485261
vn 0.017387 0.874197 -0.485261
vn -0.050014 0.821884 -0.567456
vn -0.050014 0.821884 -0.567456
vn -0.050014 0.821884 -0.567456
vn -0.149115 0.909710 -0.387547
vn -0.149115 0.909710 -0.387547
vn -0.149115 0.909710 -0.387547
vn 0.257242 0.819623 -0.511902
vn 0.257242 0.819623 -0.511902
vn 0.257242 0.819623 -0.511902
vn 0.264820 0.854249 -0.447358
vn 0.264820 0.854249 -0.447358
vn 0.264820 0.854249 -0.447358
vn 0.794279 0.554460 -0.248383
vn 0.794279 0.554460 -0.248383
vn 0.794279 0.554460 -0.248383
vn 0.547417 0.834813 -0.058503
vn 0.547417 0.834813 -0.058503
vn 0.547417 0.834813 -0.058503
vn 0.913395 0.393594 0.103893
vn 0.913395 0.393595 0.103893
vn 0.913395 0.393594 0.103893
vn 0.387182 0.840053 -0.380002
vn 0.387182 0.840053 -0.380002
vn 0.387182 0.840053 -0.380002
vn 0.621055 0.776912 -0.103433
vn 0.621055 0.776912 -0.103433
vn 0.621055 0.776912 -0.103433
vn 0.621056 0.776912 -0.103433
vn 0.235144 0.927626 -0.290202
vn 0.235144 0.927626 -0.290202
vn 0.235144 0.927626 -0.290202
vn -0.094599 0.925933 0.365649
vn -0.094599 0.925933 0.365649
vn -0.094599 0.925933 0.365649
vn -0.617145 0.541252 -0.571120
vn -0.617145 0.541252 -0.571120
vn -0.617145 0.541252 -0.571120
vn -0.617145 0.541252 -0.571120
vn -0.513072 0.688015 -0.513218
vn -0.513072 0.688015 -0.513218
vn -0.513072 0.688015 -0.513218
vn -0.591109 0.741333 -0.317830
vn -0.591109 0.741333 -0.317830
vn -0.591109 0.741333 -0.317830
vn -0.306069 0.870722 -0.384922
vn -0.306069 0.870722 -0.384922
vn -0.306069 0.870722 -0.384922
vn 0.761981 0.537674 -0.360960
vn 0.761981 0.537674 -0.360960
vn 0.761981 0.537674 -0.360960
vn 0.825664 0.554771 0.102510
vn 0.825664 0.554771 0.102510
vn 0.825664 0.554771 0.102510
vn 0.433023 0.896818 -0.090605
vn 0.433023 0.896818 -0.090605
vn 0.433023 0.896818 -0.090605
vn 0.192799 0.886687 0.420256
vn 0.192799 0.886687 0.420256
vn 0.192799 0.886687 0.420256
vn 0.743909 0.656953 0.122522
vn 0.743909 0.656953 0.122522
vn 0.743909 0.656953 0.122522
vn 0.311646 0.764073 0.564862
vn 0.311646 0.764073 0.564862
vn 0.311646 0.764073 0.564862
vn 0.519812 0.650786 0.553419
vn 0.519812 0.650786 0.553419
vn 0.519812 0.650786 0.553419
vn 0.524433 0.639574 0.562063
vn 0.524433 0.639574 0.562063
vn 0.524433 0.639574 0.562063
vn -0.557984 0.469970 0.683946
vn -0.557984 0.469970 0.683946
vn -0.557984 0.469970 0.683946
vn -0.154125 0.985830 0.066212
vn -0.154125 0.985830 0.066212
vn -0.154125 0.985830 0.066212
vn -0.077302 0.994985 0.063475
vn -0.077302 0.994985 0.063475
vn -0.077302 0.994985 0.063475
vn -0.487744 0.799151 0.351374
vn -0.487744 0.799151 0.351374
vn -0.487744 0.799151 0.351374
vn -0.323115 0.809519 -0.490179
vn -0.323115 0.809519 -0.490179
vn -0.323115 0.809519 -0.490179
vn -0.626434 0.759875 -0.173695
vn -0.626434 0.759875 -0.173695
vn -0.626434 0.759875 -0.173695
vn -0.509665 0.837221 -0.198249
vn -0.509665 0.837221 -0.198249
vn -0.509665 0.837221 -0.198249
vn -0.690487 0.661087 -0.293583
vn -0.690487 0.661087 -0.293583
vn -0.690487 0.661087 -0.293583
vn -0.690487 0.661087 -0.293583
vn 0.189090 0.948759 0.253184
vn 0.189090 0.948759 0.253184
vn 0.189090 0.948759 0.253184
vn 0.319394 0.445065 0.836603
vn 0.319394 0.445065 0.836603
vn 0.319394 0.445065 0.836603
vn 0.193341 0.721424 0.664956
vn 0.193341 0.721424 0.664956
vn 0.193341 0.721424 0.664956
vn 0.179863 0.592491 0.785241
vn 0.179863 0.592491 0.785241
vn 0.179863 0.592491 0.785241
vn -0.179060 0.300816 0.936721
vn -0.179060 0.300816 0.936721
vn -0.179060 0.300816 0.936721
vn -0.752752 0.485664 0.444404
vn -0.752752 0.485664 0.444404
vn -0.752752 0.485664 0.444404
vn -0.062719 0.816098 0.574500
vn -0.062719 0.816098 0.574500
vn -0.062719 0.816098 0.574500
vn -0.355379 0.888126 0.291443
vn -0.355379 0.888126 0.291443
vn -0.355379 0.888126 0.291443
vn -0.403181 0.427427 0.809167
vn -0.403181 0.427427 0.809167
vn -0.403181 0.427427 0.809167
vn -0.334230 0.691870 0.640005
vn -0.334230 0.691870 0.640005
vn -0.334230 0.691870 0.640005
vn -0.599207 0.793271 0.108036
vn -0.599207 0.793271 0.108036
vn -0.599207 0.793271 0.108036
vn -0.202158 0.939516 0.276481
vn -0.202158 0.939516 0.276481
vn -0.202158 0.939516 0.276481
vn 0.014865 0.864131 0.503048
vn 0.014865 0.864131 0.503048
vn 0.014865 0.864131 0.503048
vn -0.018576 0.910907 0.412194
vn -0.018576 0.910907 0.412194
vn -0.018576 0.910907 0.412194
vn -0.018576 0.910907 0.412194
vn 0.109417 0.951781 0.286601
vn 0.109417 0.951781 0.286601
vn 0.109417 0.951781 0.286601
vn -0.003626 0.848528 0.529139
vn -0.003626 0.848528 0.529139
vn -0.003626 0.848528 0.529139
vn -0.081297 0.901398 0.425292
vn -0.081297 0.901397 0.425292
vn -0.081297 0.901397 0.425292
vn -0.348435 0.937102 -0.020820
vn -0.348435 0.937102 -0.020820
vn -0.348435 0.937102 -0.020820
vn -0.348435 0.937102 -0.020820
vn 0.110664 0.885623 0.451027
vn 0.110664 0.885623 0.451027
vn 0.110664 0.885623 0.451027
vn 0.110664 0.885623 0.451027
vn 0.626719 0.713378 -0.313554
vn 0.626719 0.713377 -0.313554
vn 0.626719 0.713378 -0.313554
vn 0.626719 0.713378 -0.313554
vn 0.615904 0.677682 -0.401757
vn 0.615904 0.677682 -0.401757
vn 0.615904 0.677682 -0.401757
vn 0.564717 0.825284 0.001260
vn 0.564717 0.825284 0.001261
vn 0.564717 0.825284 0.001260
vn 0.564717 0.825284 0.001260
vn -0.307513 0.886132 -0.346708
vn -0.307513 0.886132 -0.346708
vn -0.307513 0.886132 -0.346708
vn -0.307513 0.886132 -0.346708
vn -0.183495 0.982370 0.035752
vn -0.183495 0.982370 0.035752
vn -0.183495 0.982370 0.035752
vn -0.354275 0.920181 -0.166600
vn -0.354275 0.920181 -0.166600
vn -0.354275 0.920181 -0.166600
vn -0.354275 0.920181 -0.166600
vn -0.465729 0.823920 -0.322882
vn -0.465728 0.823920 -0.322882
vn -0.465729 0.823920 -0.322882
vn -0.465729 0.823920 -0.322882
vn -0.062251 0.995617 0.069795
vn -0.062251 0.995617 0.069795
vn -0.062251 0.995617 0.069795
vn -0.062251 0.995617 0.069795
vn -0.113935 0.981399 0.154514
vn -0.113935 0.981399 0.154514
vn -0.113935 0.981399 0.154514
vn 0.710396 0.702831 0.036962
vn 0.710396 0.702831 0.036962
vn 0.710396 0.702831 0.036962
vn -0.650041 0.509752 -0.563560
vn -0.650041 0.509752 -0.563560
vn -0.650041 0.509752 -0.563560
vn 0.355779 0.590110 0.724701
vn 0.355779 0.590110 0.724701
vn 0.355779 0.590110 0.724701
vn 0.355779 0.590110 0.724701
vn -0.028719 0.773096 -0.633638
vn -0.028719 0.773096 -0.633638
vn -0.028719 0.773096 -0.633638
vn -0.018576 0.910907 0.412193
vn -0.018576 0.910907 0.412193
vn -0.018576 0.910907 0.412193
vn 0.014865 0.864131 0.503048
vn 0.014865 0.864131 0.503048
vn 0.014865 0.864130 0.503048
vn 0.014865 0.864131 0.503048
vn -0.202159 0.939516 0.276481
vn -0.202159 0.939516 0.276481
vn -0.202159 0.939516 0.276481
vn -0.202159 0.939516 0.276481
vn -0.599207 0.793271 0.108036
vn -0.599207 0.793271 0.108036
vn -0.599207 0.793271 0.108036
vn -0.018576 0.910907 0.412192
vn -0.018576 0.910907 0.412192
vn -0.018576 0.910907 0.412192
vn -0.081297 0.901397 0.425293
vn -0.081297 0.901397 0.425293
vn -0.081297 0.901397 0.425293
vn -0.509665 0.837221 -0.198249
vn -0.509665 0.837221 -0.198249
vn -0.509665 0.837221 -0.198249
vn -0.334230 0.691871 0.640004
vn -0.334230 0.691871 0.640004
vn -0.334230 0.691871 0.640004
vn -0.523105 0.797151 0.301516
vn -0.523105 0.797151 0.301516
vn -0.523105 0.797151 0.301516
vn -0.557983 0.469970 0.683946
vn -0.557983 0.469970 0.683946
vn -0.557983 0.469970 0.683946
s off
f 1/63/1 9/64/2 10/65/3
f 32/32/4 33/31/5 3/34/6
f 9/30/7 11/33/8 10/35/9
f 10/80/10 11/74/11 2/79/12
f 1/63/13 12/66/14 9/64/15
f 12/167/16 4/28/17 13/25/18
f 12/27/19 13/163/20 9/24/21
f 33/21/22 34/18/23 3/17/24
f 1/63/25 14/68/26 12/66/27
f 14/68/28 15/69/29 12/66/30
f 12/167/31 15/29/32 4/28/33
f 1/63/34 16/67/35 14/68/36
f 1/63/37 10/65/38 16/67/39
f 10/4/40 2/6/41 17/2/42
f 10/4/43 17/2/44 16/1/45
f 16/1/46 17/2/47 5/3/48
f 2/79/49 11/74/50 18/78/51
f 31/36/52 32/32/53 3/34/54 19/37/55
f 30/45/56 31/47/57 19/46/58
f 29/42/59 30/45/60 19/46/61
f 3/17/62 34/18/63 35/19/64 20/20/65
f 35/19/66 36/22/67 20/20/68
f 20/20/69 36/22/70 37/26/71
f 117/154/72 118/155/73 119/156/74
f 5/3/75 17/2/76 21/5/77
f 17/2/78 2/6/79 22/7/80
f 17/2/81 22/7/82 21/5/83
f 21/5/84 22/7/85 6/8/86
f 2/6/87 18/9/88 22/7/89
f 18/9/90 7/13/91 23/10/92
f 18/9/93 23/10/94 22/7/95
f 22/7/96 23/10/97 6/8/98
f 39/70/99 20/71/100 47/72/101
f 20/39/102 37/40/103 38/41/104
f 53/90/105 54/91/106 55/92/107
f 56/93/108 57/94/109 58/95/110
f 120/157/111 121/158/112 122/159/113
f 59/96/114 60/97/115 61/98/116
f 123/160/117 124/161/118 125/162/119
f 86/123/120 87/124/121 88/125/122 89/126/123
f 21/5/124 6/8/125 25/11/126
f 6/8/127 23/10/128 26/12/129
f 23/10/130 7/13/131 50/14/132
f 90/127/133 91/128/134 92/129/135
f 93/130/136 94/131/137 95/132/138
f 40/83/139 24/84/140 49/85/141
f 96/133/142 97/134/143 98/135/144
f 99/136/145 100/137/146 101/138/147
f 102/139/148 103/140/149 104/141/150
f 105/142/151 106/143/152 107/144/153
f 46/86/154 51/88/155 27/87/156
f 44/57/157 46/59/158 27/54/159
f 42/55/160 44/57/161 27/54/162
f 27/54/163 28/51/164 41/52/165 42/55/166
f 25/48/167 6/49/168 26/50/169
f 25/48/170 26/50/171 28/51/172
f 41/52/173 26/50/174 8/53/175
f 62/99/176 63/100/177 64/101/178 65/102/179
f 18/44/180 30/45/181 29/42/182 48/43/183
f 11/74/184 31/76/185 30/77/186 18/78/187
f 11/74/188 32/75/189 31/76/190
f 9/30/191 33/31/192 32/32/193 11/33/194
f 9/166/195 13/164/196 34/18/197 33/21/198
f 35/60/199 34/61/200 13/62/201
f 13/165/202 116/153/203 36/22/204 35/19/205
f 108/145/206 109/146/207 110/147/208 111/148/209
f 112/149/210 113/150/211 114/151/212 115/152/213
f 66/103/214 67/104/215 68/105/216
f 3/34/217 39/38/218 19/37/219
f 3/17/220 20/20/221 39/23/222
f 7/13/223 40/15/224 49/16/225 50/14/226
f 7/81/227 52/89/228 40/82/229
f 43/56/230 41/52/231 8/53/232
f 85/122/233 45/58/234 43/56/235 8/53/236
f 69/106/237 70/107/238 71/108/239 72/109/240
f 73/110/241 74/111/242 75/112/243
f 42/55/244 41/52/245 43/56/246
f 28/51/247 26/50/248 41/52/249
f 76/113/250 77/114/251 78/115/252
f 79/116/253 80/117/254 81/118/255
f 82/119/256 83/120/257 84/121/258
f 39/70/259 47/72/260 19/73/261
