# This file uses centimeters as units for non-parametric coordinates.

mtllib 20230608_AEye_Painting.mtl
v -2.623165 -1.291091 0.017009
v 2.623165 -1.291091 0.017009
v -2.623165 1.291091 0.017009
v 2.623165 1.291091 0.017009
v -2.623165 1.291091 -0.065738
v 2.623165 1.291091 -0.065738
v -2.623165 -1.291091 -0.065738
v 2.623165 -1.291091 -0.065738
vt 0.007338 0.593900
vt 1.000096 -0.001344
vt 0.007341 0.498592
vt 0.007347 0.304951
vt 0.999934 1.003862
vt 0.010401 0.304951
vt 0.010392 0.593900
vt 0.000066 0.003787
vt 0.007332 0.787542
vt 0.010404 0.209643
vt 0.010395 0.498592
vt -0.000066 1.003670
vt 0.010386 0.787542
vt 1.000066 0.003978
vt 0.007350 0.209643
vt 0.999904 0.998772
vt 0.000096 -0.001477
vt -0.000096 0.998640
vn 0.000000 0.000000 1.000000
vn 0.000000 0.000000 1.000000
vn 0.000000 0.000000 1.000000
vn 0.000000 0.000000 1.000000
vn 0.000000 1.000000 0.000000
vn 0.000000 1.000000 0.000000
vn 0.000000 1.000000 0.000000
vn 0.000000 1.000000 0.000000
vn 0.000000 0.000000 -1.000000
vn 0.000000 0.000000 -1.000000
vn 0.000000 0.000000 -1.000000
vn 0.000000 0.000000 -1.000000
vn 0.000000 -1.000000 0.000000
vn 0.000000 -1.000000 0.000000
vn 0.000000 -1.000000 0.000000
vn 0.000000 -1.000000 0.000000
vn 1.000000 0.000000 0.000000
vn 1.000000 0.000000 0.000000
vn 1.000000 0.000000 0.000000
vn 1.000000 0.000000 0.000000
vn -1.000000 0.000000 0.000000
vn -1.000000 0.000000 0.000000
vn -1.000000 0.000000 0.000000
vn -1.000000 0.000000 0.000000
s off
usemtl lambert3SG
f 1/17/1 2/2/2 4/16/3 3/18/4
f 3/3/5 4/4/6 6/6/7 5/11/8
f 5/5/9 6/12/10 8/8/11 7/14/12
f 7/7/13 8/13/14 2/9/15 1/1/16
f 2/15/17 8/10/18 6/6/19 4/4/20
f 7/7/21 1/1/22 3/3/23 5/11/24
