# This file uses centimeters as units for non-parametric coordinates.

v 9.643969 5.612378 -42.923276
v 18.222629 10.346312 -12.126762
v -1.019863 25.043136 -29.014266
v 23.063870 -0.000026 -15.382109
v 12.860698 4.321048 20.815530
v 0.968187 18.737919 10.378472
v -34.675698 -0.000012 9.689467
v -9.695644 4.321048 24.287479
v 5.073663 16.295856 -40.647879
v 16.384114 7.617347 -30.721646
v 10.116071 11.671818 -22.546139
v -1.916574 4.338956 -46.782625
v -8.184627 12.959062 -38.607109
v 7.757901 -0.000023 -56.862375
v -12.209540 -0.000023 -53.788913
v 24.791829 -0.000003 -41.913139
v 21.426522 4.321048 -12.619916
v 11.284614 18.645939 0.608328
v -0.025840 23.001774 -9.317892
v -11.379378 16.188478 -19.094366
v -28.100974 0.000000 -31.721132
v 32.084963 -0.000003 17.875609
v 18.274858 7.696282 6.743072
v 8.132948 9.816480 19.971314
v -10.290882 14.581984 4.338294
v 16.810907 -0.000023 37.797803
v 1.864904 4.321048 28.146826
v -5.125336 12.979938 22.012077
v -32.002238 0.000000 35.585193
v -7.602131 -0.000023 37.505668
v 0.563378 19.705898 2.357305
v 5.978891 22.263168 -4.048052
v 5.572450 19.517642 -16.619829
v 4.419824 16.850914 -25.854702
v 2.273946 18.541728 -35.302718
v -5.045957 13.596183 -34.404772
v -9.745891 12.331116 -29.015105
v -15.211921 11.942623 -20.183787
v -15.655290 14.860138 -9.441392
v -3.765149 28.224140 -19.550973
v -4.400746 20.240361 13.309276
v -8.184627 12.959062 -38.607109
v -8.184627 12.959062 -38.607109
v -19.078944 8.568359 -22.763988
v -27.251610 7.408936 7.235931
v -5.937078 15.912581 -1.607770
v -1.916574 4.338956 -46.782625
v -12.912371 4.321047 -39.451313
v -8.184627 12.959062 -38.607109
v -1.916574 4.338956 -46.782625
v -12.209540 -0.000023 -53.788913
v -12.912371 4.321047 -39.451313
v -12.912371 4.321047 -39.451313
v -12.209540 -0.000023 -53.788913
v -28.100974 0.000000 -31.721132
v -11.379378 16.188478 -19.094366
v -15.655290 14.860138 -9.441392
v -11.040126 15.576624 -5.262408
v -12.912371 4.321047 -39.451313
v -28.100974 0.000000 -31.721132
v -19.078944 8.568359 -22.763988
v -19.078944 8.568359 -22.763988
v -27.251610 7.408936 7.235931
v -20.925937 14.378289 2.706170
v -10.290882 14.581984 4.338294
v -20.925937 14.378289 2.706170
v -17.188201 8.568361 14.700722
v -5.125336 12.979938 22.012077
v -17.188201 8.568361 14.700722
v -9.695644 4.321048 24.287479
v -20.925937 14.378289 2.706170
v -27.251610 7.408936 7.235931
v -17.188201 8.568361 14.700722
v -27.251610 7.408936 7.235931
v -32.002238 0.000000 35.585193
v -17.188201 8.568361 14.700722
v -17.188201 8.568361 14.700722
v -32.002238 0.000000 35.585193
v -9.695644 4.321048 24.287479
v -15.655290 14.860138 -9.441392
v -15.211921 11.942623 -20.183787
v -19.078944 8.568359 -22.763988
v -20.925937 14.378289 2.706170
v -11.040126 15.576624 -5.262408
v -15.655290 14.860138 -9.441392
v -20.925937 14.378289 2.706170
v -10.290882 14.581984 4.338294
v -5.937078 15.912581 -1.607770
v -11.040126 15.576624 -5.262408
v -10.290882 14.581984 4.338294
vt 0.374422 0.088941
vt 0.268178 0.212854
vt 0.175022 0.122710
vt 0.426024 0.142684
vt 0.387177 0.209304
vt 0.575404 0.205914
vt 0.448450 0.278199
vt 0.528500 0.358712
vt 0.511532 0.376641
vt 0.428421 0.392481
vt 0.648493 0.292218
vt 0.452775 0.449285
vt 0.430534 0.511513
vt 0.225549 0.559210
vt 0.298234 0.628483
vt 0.176834 0.413352
vt 0.465054 0.556315
vt 0.099284 0.649354
vt 0.099284 0.547017
vt 0.237723 0.263363
vt 0.000000 0.446722
vt 0.099284 0.246623
vt 0.000000 0.666389
vt 0.000000 0.218087
vt 0.000000 0.000000
vt 0.470284 0.714990
vt 0.490798 0.985024
vt 0.335240 0.901072
vt 0.311795 0.671005
vt 0.365766 0.645579
vt 0.440555 0.723106
vt 0.279931 0.770402
vt 0.446380 0.637770
vt 0.410735 0.965005
vt 0.293518 0.658199
vt 0.522726 0.696408
vt 0.033593 0.953165
vt 0.033592 0.631528
vt 0.708623 0.173492
vt 0.857500 0.297421
vt 0.729869 0.370005
vt 0.589737 0.417296
vt 0.710511 0.504018
vt 0.487080 0.669096
vt 0.496516 0.048670
vt 0.515968 0.124381
vt 0.753915 0.718690
vt 0.726057 0.467980
vt 0.858555 0.671640
vt 0.644168 0.748574
vt 0.881186 0.850395
vt 0.681638 0.850395
vt 0.531869 0.850395
vt 0.915144 0.448477
vt 0.789406 0.412415
vt 0.910072 0.222697
vt 0.809758 0.522713
vt 0.895692 0.813589
vt 0.845392 0.576945
vt 0.956189 0.710907
vt 0.660638 0.850377
vt 0.817454 0.913575
vt 0.660638 0.935075
vt 0.520672 0.799036
vt 0.657363 0.684750
vt 0.547728 0.773425
vt 0.532358 0.531581
vt 0.487080 0.408548
vt 0.600654 0.373714
vt 0.590314 0.000017
vt 0.523144 0.123564
vt 0.503876 0.022518
vt 0.464686 0.150020
vt 0.558890 0.909666
vt 0.441945 0.569952
vt 0.187431 0.676013
vt 0.648974 0.553215
vt 0.895780 0.000374
vt 0.981375 0.000030
vt 0.971179 0.166035
vt 0.126250 0.965596
vt 0.106374 0.829849
vt 0.265592 0.965036
vt 0.161001 0.108209
vt 0.033592 0.000031
vt 0.294239 0.000031
vt 0.923773 0.360537
vt 0.929368 0.245687
vt 0.994717 0.227589
vt 0.800603 0.545749
vt 0.925700 0.444180
vt 0.961719 0.645583
vt 0.279931 0.022636
vt 0.510393 0.000022
vt 0.458306 0.135960
vt 0.979422 0.911632
vt 0.862188 0.873639
vt 0.962127 0.770111
vt 0.890332 0.000028
vt 0.807535 0.102346
vt 0.727821 0.022308
vt 0.584378 1.000000
vt 0.554264 0.850384
vt 0.657002 0.875274
vt 0.959709 0.236379
vt 0.655039 0.142255
vt 0.935845 0.099444
vt 0.771560 0.123637
vt 0.487080 0.167008
vt 0.713100 0.000017
vt 0.223376 0.917685
vt 0.139254 0.853074
vt 0.134367 0.778348
vt 0.336890 0.907014
vt 0.249679 0.764860
vt 0.184755 0.782841
vt 0.192815 0.639786
vt 0.303569 0.675679
vt 0.907213 0.080600
vt 0.839794 0.091190
vt 0.893944 0.001578
vt 0.175022 0.122710
vt 0.175022 0.122710
vn 0.759002 0.429006 -0.489765
vn 0.759002 0.429007 -0.489765
vn 0.759002 0.429007 -0.489765
vn 0.846101 0.523858 -0.098421
vn 0.846101 0.523858 -0.098421
vn 0.846101 0.523857 -0.098421
vn 0.583105 0.811162 0.044780
vn 0.583105 0.811162 0.044780
vn 0.583105 0.811162 0.044780
vn 0.368629 0.913796 -0.170555
vn 0.368629 0.913796 -0.170555
vn 0.368629 0.913796 -0.170555
vn 0.270212 0.309752 -0.911613
vn 0.270212 0.309752 -0.911613
vn 0.270212 0.309752 -0.911613
vn -0.518079 0.359408 -0.776157
vn -0.518079 0.359408 -0.776157
vn -0.518079 0.359408 -0.776157
vn -0.261550 0.557247 -0.788078
vn -0.261550 0.557248 -0.788078
vn -0.261550 0.557247 -0.788078
vn -0.432316 0.504124 -0.747638
vn -0.432316 0.504124 -0.747637
vn -0.432316 0.504124 -0.747638
vn 0.023537 0.926266 -0.376134
vn 0.023537 0.926266 -0.376134
vn 0.023537 0.926266 -0.376134
vn -0.069229 0.890463 -0.449758
vn -0.069229 0.890463 -0.449758
vn -0.069229 0.890463 -0.449758
vn -0.196051 0.936184 -0.291758
vn -0.196051 0.936185 -0.291758
vn -0.196051 0.936184 -0.291758
vn 0.342634 0.854504 -0.390416
vn 0.342634 0.854504 -0.390416
vn 0.342634 0.854504 -0.390416
vn 0.346879 0.875838 -0.335532
vn 0.346879 0.875838 -0.335532
vn 0.346879 0.875838 -0.335532
vn 0.866910 0.473678 -0.155230
vn 0.866910 0.473678 -0.155230
vn 0.866910 0.473678 -0.155230
vn 0.641687 0.765961 -0.039268
vn 0.641687 0.765960 -0.039268
vn 0.641687 0.765960 -0.039268
vn 0.945754 0.318992 0.061597
vn 0.945754 0.318992 0.061597
vn 0.945754 0.318992 0.061597
vn 0.487956 0.828674 -0.274222
vn 0.487956 0.828675 -0.274222
vn 0.487956 0.828674 -0.274222
vn 0.712860 0.698004 -0.067981
vn 0.712860 0.698004 -0.067981
vn 0.712860 0.698004 -0.067981
vn 0.712860 0.698004 -0.067981
vn 0.301046 0.929577 -0.212741
vn 0.301046 0.929577 -0.212741
vn 0.301046 0.929576 -0.212741
vn -0.124423 0.953250 0.275379
vn -0.124423 0.953250 0.275379
vn -0.124423 0.953250 0.275379
vn -0.755489 0.518624 -0.400333
vn -0.755489 0.518624 -0.400333
vn -0.755489 0.518624 -0.400333
vn -0.755489 0.518624 -0.400333
vn -0.641533 0.673364 -0.367447
vn -0.641533 0.673364 -0.367447
vn -0.641533 0.673364 -0.367447
vn -0.696999 0.684210 -0.214591
vn -0.696999 0.684210 -0.214591
vn -0.696999 0.684210 -0.214591
vn -0.392927 0.874954 -0.282955
vn -0.392927 0.874954 -0.282955
vn -0.392927 0.874954 -0.282955
vn 0.851680 0.470395 -0.231017
vn 0.851680 0.470395 -0.231017
vn 0.851680 0.470395 -0.231017
vn 0.883314 0.464556 0.062796
vn 0.883314 0.464556 0.062796
vn 0.883314 0.464556 0.062796
vn 0.523979 0.849414 -0.062778
vn 0.523979 0.849414 -0.062778
vn 0.523979 0.849414 -0.062778
vn 0.253867 0.913866 0.316859
vn 0.253867 0.913866 0.316859
vn 0.253867 0.913866 0.316859
vn 0.820140 0.566911 0.077345
vn 0.820140 0.566911 0.077345
vn 0.820140 0.566911 0.077345
vn 0.416671 0.799612 0.432441
vn 0.416671 0.799612 0.432441
vn 0.416671 0.799612 0.432441
vn 0.654849 0.641719 0.399210
vn 0.654849 0.641719 0.399210
vn 0.654849 0.641719 0.399210
vn 0.661131 0.631103 0.405728
vn 0.661131 0.631103 0.405728
vn 0.661131 0.631103 0.405728
vn -0.720330 0.474889 0.505574
vn -0.720330 0.474889 0.505574
vn -0.720330 0.474889 0.505574
vn -0.195641 0.979494 0.048126
vn -0.195641 0.979494 0.048126
vn -0.195641 0.979494 0.048126
vn -0.596030 0.764394 0.245866
vn -0.596030 0.764394 0.245866
vn -0.596030 0.764394 0.245866
vn -0.422570 0.828670 -0.367071
vn -0.422570 0.828670 -0.367071
vn -0.422570 0.828670 -0.367071
vn -0.720433 0.684027 -0.114382
vn -0.720433 0.684027 -0.114382
vn -0.720433 0.684027 -0.114382
vn -0.785461 0.588627 -0.191229
vn -0.785461 0.588627 -0.191229
vn -0.785461 0.588627 -0.191229
vn 0.242451 0.952189 0.185885
vn 0.242451 0.952189 0.185885
vn 0.242451 0.952189 0.185885
vn 0.474622 0.517677 0.711859
vn 0.474622 0.517677 0.711859
vn 0.474622 0.517677 0.711859
vn 0.273093 0.797607 0.537813
vn 0.273093 0.797607 0.537813
vn 0.273093 0.797607 0.537813
vn 0.268246 0.691647 0.670573
vn 0.268246 0.691647 0.670573
vn 0.268246 0.691647 0.670573
vn -0.292328 0.384403 0.875659
vn -0.292328 0.384403 0.875659
vn -0.292328 0.384403 0.875659
vn -0.854574 0.431565 0.288887
vn -0.854574 0.431565 0.288887
vn -0.854574 0.431565 0.288887
vn -0.086959 0.885670 0.456100
vn -0.086959 0.885670 0.456100
vn -0.086959 0.885670 0.456100
vn -0.576466 0.478354 0.662468
vn -0.576466 0.478354 0.662468
vn -0.576466 0.478354 0.662468
vn -0.455132 0.737444 0.499031
vn -0.455132 0.737444 0.499031
vn -0.455132 0.737444 0.499031
vn -0.259535 0.944104 0.203245
vn -0.259535 0.944104 0.203245
vn -0.259535 0.944104 0.203245
vn 0.020216 0.919857 0.391733
vn 0.020216 0.919857 0.391733
vn 0.020216 0.919857 0.391733
vn -0.024726 0.949047 0.314163
vn -0.024726 0.949047 0.314163
vn -0.024726 0.949047 0.314163
vn 0.141979 0.966693 0.212946
vn 0.141979 0.966693 0.212946
vn 0.141979 0.966693 0.212946
vn -0.004966 0.909791 0.415036
vn -0.004966 0.909791 0.415036
vn -0.004966 0.909791 0.415036
vn -0.108279 0.939720 0.324347
vn -0.108279 0.939720 0.324347
vn -0.108279 0.939720 0.324347
vn 0.139652 0.949624 0.280554
vn 0.139652 0.949624 0.280554
vn 0.139652 0.949624 0.280554
vn 0.139652 0.949624 0.280554
vn 0.730124 0.650514 -0.209166
vn 0.730124 0.650514 -0.209166
vn 0.730124 0.650514 -0.209166
vn 0.730124 0.650514 -0.209166
vn 0.729083 0.627917 -0.272320
vn 0.729083 0.627917 -0.272320
vn 0.729083 0.627917 -0.272320
vn 0.658167 0.752872 0.000841
vn 0.658167 0.752872 0.000841
vn 0.658167 0.752872 0.000841
vn 0.658167 0.752872 0.000841
vn -0.232041 0.972361 0.025887
vn -0.232041 0.972361 0.025887
vn -0.232041 0.972362 0.025887
vn -0.438287 0.891053 -0.118017
vn -0.438287 0.891053 -0.118017
vn -0.438287 0.891053 -0.118017
vn -0.438287 0.891053 -0.118017
vn -0.570261 0.789655 -0.226379
vn -0.570261 0.789655 -0.226379
vn -0.570261 0.789655 -0.226379
vn -0.570261 0.789655 -0.226379
vn -0.079523 0.995525 0.051054
vn -0.079523 0.995525 0.051053
vn -0.079523 0.995525 0.051054
vn -0.079523 0.995525 0.051053
vn -0.145772 0.982821 0.113197
vn -0.145772 0.982821 0.113197
vn -0.145772 0.982821 0.113197
vn 0.790427 0.612103 0.023549
vn 0.790427 0.612103 0.023549
vn 0.790427 0.612103 0.023548
vn -0.784901 0.481776 -0.389643
vn -0.784901 0.481776 -0.389643
vn -0.784901 0.481776 -0.389643
vn 0.497156 0.645442 0.579862
vn 0.497156 0.645442 0.579862
vn 0.497156 0.645442 0.579862
s off
f 1/47/1 9/48/2 10/49/3
f 34/5/4 35/4/5 3/6/6
f 9/1/7 11/2/8 10/122/9
f 10/57/10 11/55/11 2/54/12
f 1/47/13 12/50/14 9/48/15
f 47/78/16 48/79/17 49/80/18
f 12/26/19 43/74/20 9/27/21
f 35/32/22 36/29/23 3/28/24
f 1/47/25 14/52/26 12/50/27
f 14/52/28 15/53/29 12/50/30
f 50/81/31 51/82/32 52/83/33
f 1/47/34 16/51/35 14/52/36
f 1/47/37 10/49/38 16/51/39
f 10/3/40 2/20/41 17/22/42
f 10/123/43 17/22/44 16/25/45
f 16/25/46 17/22/47 4/24/48
f 2/54/49 11/55/50 18/56/51
f 33/7/52 34/5/53 3/6/54 19/8/55
f 32/70/56 33/71/57 19/72/58
f 31/65/59 32/66/60 19/64/61
f 3/28/62 36/29/63 37/30/64 20/31/65
f 37/30/66 38/33/67 20/31/68
f 20/31/69 38/33/70 39/36/71
f 53/84/72 54/85/73 55/86/74
f 4/24/75 17/22/76 22/21/77
f 17/22/78 2/20/79 23/16/80
f 17/22/81 23/16/82 22/21/83
f 22/21/84 23/16/85 5/19/86
f 2/20/87 18/10/88 23/16/89
f 18/10/90 6/13/91 24/14/92
f 18/10/93 24/14/94 23/16/95
f 23/16/96 24/14/97 5/19/98
f 40/58/99 20/59/100 19/60/101
f 56/87/102 57/88/103 58/89/104
f 19/64/105 46/77/106 31/65/107
f 59/90/108 60/91/109 61/92/110
f 21/37/111 7/38/112 45/76/113
f 62/93/114 63/94/115 64/95/116
f 22/21/117 5/19/118 26/23/119
f 5/19/120 24/14/121 27/18/122
f 24/14/123 6/13/124 28/15/125
f 24/14/126 28/15/127 27/18/128
f 27/61/129 28/62/130 8/63/131
f 41/67/132 25/68/133 28/69/134
f 65/96/135 66/97/136 67/98/137
f 68/99/138 69/100/139 70/101/140
f 71/102/141 72/103/142 73/104/143
f 74/105/144 75/106/145 76/107/146
f 77/108/147 78/109/148 79/110/149
f 29/44/150 30/42/151 8/43/152
f 26/39/153 5/40/154 27/41/155
f 26/39/156 27/41/157 30/42/158
f 30/42/159 27/41/160 8/43/161
f 18/10/162 32/9/163 31/12/164 6/13/165
f 11/2/166 33/7/167 32/9/168 18/10/169
f 11/2/170 34/5/171 33/7/172
f 9/1/173 35/4/174 34/5/175 11/2/176
f 37/45/177 36/46/178 42/73/179
f 13/35/180 44/75/181 38/33/182 37/30/183
f 80/111/184 81/112/185 82/113/186 83/114/187
f 84/115/188 85/116/189 86/117/190 87/118/191
f 88/119/192 89/120/193 90/121/194
f 3/6/195 40/11/196 19/8/197
f 3/28/198 20/31/199 40/34/200
f 6/13/201 41/17/202 28/15/203
