# This file uses centimeters as units for non-parametric coordinates.

v -0.537858 1.945668 -14.115481
v 6.377317 5.784750 -1.098051
v -0.326594 6.718091 -0.629655
v -9.078003 1.443324 -1.658121
v 11.494843 0.000002 -2.333516
v 5.906864 2.357929 8.836353
v 2.334923 8.076031 7.934928
v -4.251906 4.476921 8.463317
v 1.151774 6.437685 14.210137
v -2.036624 4.353032 -11.246322
v 2.800129 3.832707 -4.305950
v 2.269791 7.754776 -2.620728
v -8.408470 1.748096 -5.907480
v -5.552975 4.305858 -1.997271
v -4.085231 -0.000009 -18.632355
v -8.248721 -0.000009 -10.645954
v 6.325562 -0.000000 -6.691644
v 7.234592 3.247416 -1.607076
v 3.834192 7.154368 3.699870
v 1.004164 10.722359 3.688973
v -1.825863 5.840866 3.688973
v -4.898730 3.433501 2.715953
v -12.212546 -0.000000 2.500187
v 12.212546 0.000012 6.156658
v 7.366749 3.076162 4.326613
v 5.583245 4.907075 3.688973
v 4.337762 6.320837 8.617020
v -8.103007 0.000004 11.287445
v 9.803855 0.000004 12.246094
v 6.378158 4.087444 12.169923
v 2.300907 6.615561 11.301323
v -2.485830 -0.000004 13.009160
v 1.835469 0.000008 18.632357
v 1.265359 2.965067 -8.816264
v -1.198015 4.107565 -7.972146
v -1.951511 5.714581 -7.793929
v -3.015682 5.286353 -7.056677
v -5.257601 4.323624 -5.480407
v -7.314506 2.531020 -7.512090
v -6.439133 1.797532 -7.961236
v -6.493206 0.816056 -11.274540
v -7.459648 -0.000009 -12.159554
v 2.709301 1.241757 -10.603183
v 2.581904 -0.000003 -10.985453
v -8.248721 -0.000009 -10.645954
v -0.261462 6.498380 8.061523
v -0.261462 6.498380 8.061523
v -0.261462 6.498380 8.061523
v -4.251906 4.476921 8.463317
v -1.409239 4.311127 11.455568
v -0.261462 6.498380 8.061523
v -1.409239 4.311127 11.455568
v 2.300907 6.615561 11.301323
v 2.300907 6.615561 11.301323
v -1.409239 4.311127 11.455568
v 1.151774 6.437685 14.210137
v -4.251906 4.476921 8.463317
v -8.103007 0.000004 11.287445
v -1.409239 4.311127 11.455568
v -8.103007 0.000004 11.287445
v -2.485830 -0.000004 13.009160
v -1.409239 4.311127 11.455568
vt 0.913281 0.140909
vt 0.899974 0.250972
vt 0.774821 0.212901
vt 0.774537 0.310383
vt 0.758151 0.133481
vt 0.645983 0.274226
vt 0.640248 0.102326
vt 0.932273 0.000045
vt 0.663815 0.350362
vt 0.710307 0.000045
vt 0.774821 0.465153
vt 0.553096 0.177347
vt 0.939782 0.336427
vt 0.551104 0.000045
vt 0.561296 0.849264
vt 0.524609 0.740407
vt 0.728762 0.740407
vt 0.604652 0.899452
vt 0.221593 0.000020
vt 0.275001 0.081642
vt 0.211963 0.077428
vt 0.712585 0.610417
vt 0.691195 0.713984
vt 0.598296 0.545891
vt 0.846864 0.686229
vt 0.774161 0.749241
vt 0.757865 0.549710
vt 0.658749 0.397673
vt 0.529908 0.359456
vt 0.548316 0.180344
vt 0.464529 0.170533
vt 0.446581 0.213516
vt 0.290118 0.104899
vt 0.338589 0.000026
vt 0.548576 0.173971
vt 0.408207 0.304073
vt 0.323411 0.316003
vt 0.418603 0.431342
vt 0.457667 0.387154
vt 0.184982 0.165458
vt 0.315155 0.458385
vt 0.208670 0.289577
vt 0.068753 0.263450
vt 0.213922 0.584995
vt 0.000000 0.419003
vt 0.533960 0.424889
vt 0.070152 0.163176
vt 0.000000 0.209157
vt 0.049204 0.000027
vt 0.134890 0.081671
vt 0.360531 0.670188
vt 0.437784 0.672280
vt 0.312646 0.746372
vt 0.504023 0.441896
vt 0.609338 0.579127
vt 0.458419 0.709666
vt 0.430238 0.738612
vt 0.465875 0.898115
vt 0.317945 0.837366
vt 0.934507 0.865769
vt 0.827828 0.923066
vt 0.747170 0.770117
vt 0.891217 0.675581
vt 0.906705 0.663391
vt 0.852756 0.688686
vt 0.784263 0.546971
vt 0.915933 0.529166
vt 0.850399 0.409075
vt 0.935582 0.380296
vt 0.000000 0.423113
vt 0.144861 0.544521
vt 0.000000 0.705516
vt 0.228155 0.729746
vt 0.000000 0.858665
vt 0.517681 0.681852
vt 0.522798 0.885699
vt 0.497461 0.915936
vt 0.434524 0.733624
vt 0.524506 0.953724
vt 0.326708 0.686054
vt 0.296697 0.776304
vt 0.243758 0.766481
vt 0.243758 0.569991
vt 0.243758 0.876813
vt 0.155827 0.114870
vt 0.213810 0.003368
vt 0.423128 0.740192
vt 0.100682 0.000044
vt 0.552107 0.630190
vt 0.474720 0.000000
vt 0.464943 0.161107
vt 0.392132 0.046340
vt 0.995533 0.261081
vt 0.911441 0.308265
vt 0.915262 0.155746
vt 0.547472 0.000010
vt 0.543731 0.149323
vt 0.476917 0.046256
vt 1.000000 0.605407
vt 0.926419 0.771884
vt 0.922039 0.482523
vt 0.333842 0.697164
vt 0.333842 0.526316
vt 0.464966 0.493571
vt 0.548576 0.173971
vn 0.321901 0.903388 -0.283319
vn 0.321901 0.903388 -0.283320
vn 0.321901 0.903388 -0.283320
vn -0.395988 0.917440 -0.038694
vn -0.395988 0.917440 -0.038694
vn -0.395988 0.917440 -0.038694
vn -0.395988 0.917440 -0.038694
vn 0.640482 0.374654 -0.670385
vn 0.640482 0.374654 -0.670385
vn 0.640482 0.374654 -0.670385
vn 0.640482 0.374654 -0.670385
vn 0.481089 0.400199 -0.779997
vn 0.481089 0.400199 -0.779997
vn 0.481089 0.400199 -0.779997
vn -0.658776 -0.393591 -0.641171
vn -0.658776 -0.393591 -0.641171
vn -0.658776 -0.393591 -0.641171
vn -0.632328 0.773441 -0.044158
vn -0.632328 0.773441 -0.044158
vn -0.632328 0.773441 -0.044158
vn -0.628092 0.776575 -0.049302
vn -0.628092 0.776575 -0.049302
vn -0.628092 0.776575 -0.049302
vn -0.628092 0.776575 -0.049302
vn -0.412322 0.910533 -0.030321
vn -0.412322 0.910533 -0.030321
vn -0.412322 0.910534 -0.030321
vn -0.412322 0.910534 -0.030321
vn -0.300762 0.915749 -0.266357
vn -0.300762 0.915749 -0.266357
vn -0.300762 0.915749 -0.266357
vn -0.488780 0.818125 -0.302929
vn -0.488780 0.818125 -0.302929
vn -0.488780 0.818125 -0.302929
vn -0.488780 0.818125 -0.302929
vn 0.744255 0.144282 -0.652125
vn 0.744255 0.144282 -0.652125
vn 0.744255 0.144282 -0.652125
vn 0.744255 0.144282 -0.652125
vn 0.526694 0.783416 -0.329928
vn 0.526694 0.783416 -0.329928
vn 0.526694 0.783416 -0.329928
vn 0.521835 0.333797 -0.785027
vn 0.521835 0.333797 -0.785027
vn 0.521835 0.333797 -0.785027
vn 0.424587 0.726696 -0.540036
vn 0.424587 0.726696 -0.540035
vn 0.424587 0.726696 -0.540035
vn 0.452006 0.712915 -0.536136
vn 0.452006 0.712915 -0.536136
vn 0.452006 0.712915 -0.536136
vn 0.439383 0.897994 -0.023448
vn 0.439383 0.897994 -0.023448
vn 0.439383 0.897994 -0.023448
vn -0.601453 0.669697 -0.435614
vn -0.601453 0.669697 -0.435614
vn -0.601453 0.669697 -0.435614
vn 0.776632 0.615593 -0.133746
vn 0.776632 0.615593 -0.133746
vn 0.776632 0.615593 -0.133746
vn 0.775483 0.615520 0.140578
vn 0.775483 0.615520 0.140578
vn 0.775483 0.615520 0.140578
vn -0.426453 0.903811 0.035539
vn -0.426453 0.903811 0.035539
vn -0.426453 0.903811 0.035539
vn -0.601014 0.766810 0.225354
vn -0.601014 0.766810 0.225354
vn -0.601014 0.766810 0.225354
vn -0.644036 0.731238 0.224742
vn -0.644036 0.731238 0.224742
vn -0.644036 0.731238 0.224742
vn -0.599621 0.796558 -0.077130
vn -0.599621 0.796558 -0.077130
vn -0.599621 0.796558 -0.077130
vn -0.598807 0.780276 -0.180553
vn -0.598807 0.780276 -0.180553
vn -0.598807 0.780276 -0.180553
vn 0.607208 0.794487 0.009406
vn 0.607208 0.794487 0.009406
vn 0.607208 0.794487 0.009406
vn 0.938814 0.275806 0.206298
vn 0.938814 0.275806 0.206298
vn 0.938814 0.275806 0.206298
vn 0.715578 0.698520 0.004223
vn 0.715578 0.698520 0.004223
vn 0.715578 0.698520 0.004223
vn 0.622445 0.716227 0.315565
vn 0.622445 0.716227 0.315565
vn 0.622445 0.716227 0.315565
vn 0.767311 0.596046 0.236563
vn 0.767311 0.596046 0.236563
vn 0.767311 0.596046 0.236563
vn 0.645573 0.761104 0.062905
vn 0.645573 0.761104 0.062905
vn 0.645573 0.761104 0.062905
vn 0.788996 0.613957 0.023273
vn 0.788996 0.613957 0.023273
vn 0.788996 0.613957 0.023273
vn 0.919953 0.371227 0.126005
vn 0.919953 0.371227 0.126005
vn 0.919953 0.371227 0.126005
vn -0.848576 0.491959 -0.194665
vn -0.848576 0.491959 -0.194665
vn -0.848576 0.491959 -0.194665
vn -0.842352 0.488350 0.227940
vn -0.842352 0.488350 0.227940
vn -0.842352 0.488350 0.227940
vn -0.405534 0.713270 0.571653
vn -0.405534 0.713270 0.571653
vn -0.405534 0.713270 0.571654
vn -0.424803 0.905266 -0.006005
vn -0.424803 0.905266 -0.006005
vn -0.424803 0.905266 -0.006005
vn -0.421381 0.885214 0.197067
vn -0.421381 0.885213 0.197067
vn -0.421381 0.885214 0.197067
vn -0.767050 0.640885 -0.030025
vn -0.767050 0.640885 -0.030025
vn -0.767050 0.640885 -0.030025
vn 0.547772 0.835345 -0.046306
vn 0.547772 0.835346 -0.046306
vn 0.547772 0.835346 -0.046306
vn 0.330159 0.909731 0.251764
vn 0.330159 0.909731 0.251764
vn 0.330159 0.909731 0.251764
vn 0.474860 0.859783 0.187833
vn 0.474860 0.859783 0.187833
vn 0.474860 0.859783 0.187833
vn 0.892289 0.336650 -0.300810
vn 0.892289 0.336650 -0.300810
vn 0.892289 0.336650 -0.300810
vn 0.467596 0.844182 0.262126
vn 0.467596 0.844182 0.262126
vn 0.467596 0.844182 0.262126
vn 0.474358 0.847211 0.239203
vn 0.474358 0.847211 0.239203
vn 0.474358 0.847211 0.239203
vn -0.379863 0.830743 0.406903
vn -0.379863 0.830743 0.406903
vn -0.379863 0.830743 0.406903
vn -0.483016 0.801287 0.353037
vn -0.483016 0.801287 0.353037
vn -0.483016 0.801287 0.353037
vn -0.525805 0.836066 -0.156594
vn -0.525805 0.836066 -0.156594
vn -0.525805 0.836066 -0.156594
vn -0.479134 0.724622 0.495332
vn -0.479134 0.724622 0.495332
vn -0.479134 0.724622 0.495332
vn -0.270407 0.385450 0.882218
vn -0.270407 0.385450 0.882218
vn -0.270407 0.385450 0.882218
vn -0.751991 0.317104 0.577887
vn -0.751991 0.317104 0.577887
vn -0.751991 0.317104 0.577887
vn 0.705278 0.583595 -0.402491
vn 0.705278 0.583595 -0.402491
vn 0.705278 0.583595 -0.402491
vn 0.550583 0.474248 0.686984
vn 0.550583 0.474248 0.686984
vn 0.550583 0.474248 0.686984
vn 0.503831 0.524808 0.686098
vn 0.503831 0.524808 0.686098
vn 0.503831 0.524808 0.686098
vn 0.517982 0.822795 -0.233887
vn 0.517982 0.822795 -0.233887
vn 0.517982 0.822795 -0.233887
vn 0.517982 0.822795 -0.233887
vn 0.880022 0.434012 -0.192860
vn 0.880022 0.434012 -0.192860
vn 0.880022 0.434012 -0.192860
vn -0.527781 0.794513 -0.300327
vn -0.527781 0.794513 -0.300327
vn -0.527780 0.794513 -0.300327
vn -0.474786 0.840529 -0.260939
vn -0.474786 0.840529 -0.260939
vn -0.474786 0.840529 -0.260939
vn -0.666470 0.241432 -0.705357
vn -0.666470 0.241432 -0.705358
vn -0.666469 0.241432 -0.705357
vn -0.666469 0.241432 -0.705358
vn -0.281877 0.934003 -0.219510
vn -0.281877 0.934003 -0.219510
vn -0.281877 0.934003 -0.219510
vn -0.281877 0.934003 -0.219510
vn -0.480402 0.840530 -0.250445
vn -0.480402 0.840530 -0.250445
vn -0.480402 0.840530 -0.250445
vn 0.575197 0.753534 -0.318332
vn 0.575197 0.753534 -0.318332
vn 0.575197 0.753534 -0.318332
vn 0.575197 0.753534 -0.318332
vn 0.747925 0.124011 -0.652096
vn 0.747925 0.124011 -0.652096
vn 0.747925 0.124011 -0.652096
s off
f 34/22/1 35/23/2 11/24/3
f 36/31/4 37/32/5 3/33/6 12/34/7
f 35/64/8 36/65/9 12/66/10 11/67/11
f 11/67/12 12/66/13 2/68/14
f 39/77/15 40/76/16 13/79/17
f 13/38/18 4/41/19 14/37/20
f 13/38/21 14/37/22 38/36/23 39/39/24
f 37/32/25 38/36/26 14/37/27 3/33/28
f 40/51/29 41/52/30 13/53/31
f 41/52/32 42/56/33 45/87/34 13/53/35
f 1/80/36 43/81/37 44/82/38 15/83/39
f 1/25/40 34/22/41 43/27/42
f 11/67/43 2/68/44 18/69/45
f 11/24/46 18/29/47 17/28/48
f 17/28/49 18/29/50 5/30/51
f 2/57/52 12/58/53 19/59/54
f 12/18/55 3/15/56 20/17/57
f 12/13/58 20/11/59 19/4/60
f 19/4/61 20/11/62 7/9/63
f 3/33/64 14/37/65 21/40/66
f 14/37/67 4/41/68 22/42/69
f 14/37/70 22/42/71 21/40/72
f 21/40/73 22/42/74 8/43/75
f 4/41/76 16/46/77 23/44/78
f 5/8/79 18/1/80 25/5/81
f 18/1/82 2/2/83 26/3/84
f 18/1/85 26/3/86 25/5/87
f 25/5/88 26/3/89 6/7/90
f 2/2/91 19/4/92 26/3/93
f 19/4/94 7/9/95 27/6/96
f 19/4/97 27/6/98 26/3/99
f 26/3/100 27/6/101 6/7/102
f 3/15/103 21/16/104 20/17/105
f 21/16/106 47/89/107 20/17/108
f 20/85/109 46/88/110 7/86/111
f 4/41/112 23/44/113 22/42/114
f 23/44/115 28/45/116 22/42/117
f 22/42/118 28/45/119 8/43/120
f 5/8/121 25/5/122 24/10/123
f 25/60/124 6/61/125 29/62/126
f 25/60/127 29/62/128 24/63/129
f 6/7/130 27/6/131 30/12/132
f 27/50/133 31/47/134 30/49/135
f 30/49/136 31/47/137 9/48/138
f 48/90/139 49/91/140 50/92/141
f 51/93/142 52/94/143 53/95/144
f 54/96/145 55/97/146 56/98/147
f 57/99/148 58/100/149 59/101/150
f 60/102/151 61/103/152 62/104/153
f 32/74/154 33/72/155 9/73/156
f 29/14/157 6/7/158 30/12/159
f 29/70/160 30/71/161 33/72/162
f 33/72/163 30/71/164 9/73/165
f 1/25/166 10/26/167 35/23/168 34/22/169
f 10/19/170 36/20/171 35/21/172
f 10/105/173 37/32/174 36/31/175
f 39/39/176 38/36/177 10/35/178
f 1/75/179 40/76/180 39/77/181 10/78/182
f 1/54/183 15/55/184 41/52/185 40/51/186
f 15/55/187 42/56/188 41/52/189
f 43/27/190 34/22/191 11/24/192 17/28/193
f 44/82/194 43/81/195 17/84/196
