# This file uses centimeters as units for non-parametric coordinates.

v -7.878603 5.612378 52.276179
v -17.710879 10.346312 15.535497
v 2.206852 25.043136 34.963664
v 14.516683 4.321047 46.970900
v -22.414791 -0.000026 19.703399
v -13.702107 4.321048 -24.484009
v -1.392269 18.737918 -12.476746
v 20.797602 14.378289 -4.300507
v 34.249937 -0.000012 -13.407764
v 8.693179 4.321048 -29.789269
v -3.405287 16.295855 49.304266
v -15.112632 7.617347 37.884685
v -9.184549 11.671818 27.708640
v 3.830241 4.338956 56.361968
v 9.758341 12.959062 46.185904
v -5.423443 -0.000023 69.004448
v 14.401416 -0.000023 64.308110
v -23.055121 -0.000002 51.806189
v -20.891898 4.321048 16.289061
v -11.300057 18.645938 -0.176129
v 0.407294 23.001774 11.243448
v 12.151562 16.188478 22.480179
v 19.994910 8.568359 26.527912
v 29.376075 0.000000 36.891170
v -32.789891 -0.000002 -19.985563
v -18.535596 7.696282 -7.233818
v -8.943758 9.816481 -23.698999
v 10.104645 14.581984 -5.744262
v 26.932522 7.408936 -10.079756
v -18.344256 -0.000023 -44.782706
v -3.015680 4.321048 -33.875045
v 4.219864 12.979938 -26.817362
v 16.571945 8.568360 -18.590568
v 30.518546 0.000000 -44.526218
v 6.060271 -0.000023 -45.637311
v 5.997923 15.912581 1.646665
v -0.659414 19.705898 -2.816912
v -5.808151 22.263168 5.180784
v -4.887363 19.517642 20.332160
v -3.357621 16.850913 31.419700
v -0.826751 18.541728 42.715360
v 6.450254 13.596183 41.269784
v 10.925596 12.331116 34.533187
v 16.025495 11.942623 23.605371
v 16.028697 14.860138 10.619652
v 11.246313 15.576624 5.804707
v 4.562410 28.224138 23.407713
v 3.852174 20.240361 -16.279086
v -14.409356 13.940585 -3.209002
v -17.044156 9.953302 -5.779038
v -15.316360 13.446322 9.667015
v -18.280925 8.514606 -0.202699
v -13.291994 10.359088 -13.102375
v -10.783317 7.691969 -24.002482
v -15.633037 5.669420 -17.592730
v -9.313457 4.321048 -28.340672
vt 0.783735 0.073012
vt 0.699899 0.194586
vt 0.626391 0.112240
vt 0.824455 0.122679
vt 0.793800 0.187695
vt 0.675868 0.247856
vt 0.590040 0.041020
vt 0.842149 0.254277
vt 0.826344 0.367053
vt 0.732073 0.292378
vt 0.566628 0.233817
vt 0.942328 0.181115
vt 0.905318 0.327825
vt 0.891924 0.348651
vt 0.741035 0.377472
vt 0.642660 0.347005
vt 0.627823 0.391299
vt 0.488287 0.000073
vt 1.000000 0.261950
vt 0.845563 0.414786
vt 0.828011 0.474533
vt 0.666263 0.524536
vt 0.676100 0.444072
vt 0.668743 0.386301
vt 0.488287 0.431684
vt 0.488285 0.207537
vt 0.591075 0.466051
vt 0.566628 0.515783
vt 0.723616 0.582636
vt 0.627744 0.521151
vt 0.488285 0.632344
vt 0.855251 0.514076
vt 0.566628 0.606882
vt 0.566628 0.553195
vt 0.074873 0.688607
vt 0.074563 0.601900
vt 0.223620 0.610232
vt 0.000000 0.707902
vt 0.147855 0.462180
vt 0.281200 0.665530
vt 0.000000 0.499492
vt 0.206081 0.455309
vt 0.212785 0.535982
vt 0.234615 0.589384
vt 0.319955 0.618257
vt 0.127848 0.219902
vt 0.256426 0.376141
vt 0.248111 0.272043
vt 0.279347 0.459129
vt 0.000000 0.179443
vt 0.432142 0.562641
vt 0.000000 0.000036
vt 0.487033 0.485704
vt 0.396917 0.423008
vt 0.268789 0.359973
vt 0.274586 0.349095
vt 0.340044 0.340239
vt 0.251625 0.292720
vt 0.323340 0.283375
vt 0.177558 0.999926
vt 0.189186 0.893436
vt 0.243628 0.872690
vt 0.204663 0.759858
vt 0.293412 0.786390
vt 0.288267 0.663028
vt 0.299390 0.858733
vt 0.413989 0.642373
vt 0.855044 0.515065
vt 0.996260 0.622315
vt 0.950935 0.642834
vt 0.885892 0.672279
vt 0.762775 0.701430
vt 0.876509 0.777471
vt 0.685572 0.895109
vt 0.935756 0.877903
vt 0.965439 0.988160
vt 0.835459 0.000000
vt 0.846435 0.067299
vt 0.803944 0.093572
vt 0.496185 0.722659
vt 0.400667 0.748058
vt 0.474136 0.509570
vt 0.425583 0.834602
vt 0.604616 0.834597
vt 0.300862 0.834602
vt 0.593014 0.682667
vt 0.044390 0.000086
vt 0.170145 0.053584
vt 0.044390 0.069639
vt 0.106075 0.136043
vt 0.342130 0.120767
vt 0.320591 0.000093
vt 0.407506 0.020169
vt 0.256569 0.118722
vt 0.212083 0.026269
vt 0.318356 0.000093
vt 0.205671 0.000062
vt 0.217575 0.080308
vt 0.147965 0.105579
vt 0.157169 0.194819
vt 0.453891 0.000093
vt 0.466170 0.116570
vt 0.404438 0.028328
vt 0.234615 0.589384
vn -0.771923 0.448534 0.450502
vn -0.771923 0.448534 0.450502
vn -0.771923 0.448534 0.450502
vn -0.584490 0.811217 -0.017280
vn -0.584490 0.811217 -0.017280
vn -0.584490 0.811217 -0.017280
vn -0.363309 0.918781 0.154426
vn -0.363309 0.918781 0.154426
vn -0.363309 0.918781 0.154426
vn -0.271810 0.361869 0.891723
vn -0.271810 0.361869 0.891723
vn -0.271810 0.361869 0.891723
vn 0.606340 0.396644 0.689221
vn 0.606341 0.396644 0.689221
vn 0.606340 0.396644 0.689221
vn 0.326162 0.619061 0.714411
vn 0.326162 0.619061 0.714411
vn 0.326162 0.619061 0.714411
vn -0.008307 0.947663 0.319164
vn -0.008307 0.947663 0.319164
vn -0.008307 0.947663 0.319164
vn 0.090466 0.919770 0.381888
vn 0.090466 0.919770 0.381888
vn 0.090466 0.919770 0.381888
vn 0.210508 0.948244 0.237737
vn 0.210508 0.948244 0.237737
vn 0.210508 0.948244 0.237737
vn -0.335081 0.877331 0.343527
vn -0.335081 0.877331 0.343527
vn -0.335081 0.877331 0.343527
vn -0.339433 0.893158 0.295051
vn -0.339433 0.893157 0.295051
vn -0.339433 0.893157 0.295051
vn -0.864781 0.476408 0.158709
vn -0.864781 0.476408 0.158709
vn -0.864781 0.476408 0.158709
vn -0.639974 0.766478 0.054272
vn -0.639974 0.766478 0.054272
vn -0.639974 0.766478 0.054272
vn -0.947560 0.319018 -0.018901
vn -0.947560 0.319018 -0.018901
vn -0.947560 0.319018 -0.018901
vn -0.482928 0.840170 0.246769
vn -0.482928 0.840170 0.246769
vn -0.482928 0.840170 0.246769
vn -0.482928 0.840170 0.246769
vn -0.710534 0.699041 0.080520
vn -0.710534 0.699041 0.080520
vn -0.710534 0.699041 0.080520
vn -0.710534 0.699041 0.080520
vn -0.294435 0.937059 0.187694
vn -0.294435 0.937059 0.187694
vn -0.294435 0.937059 0.187694
vn 0.114467 0.965245 -0.234946
vn 0.114467 0.965245 -0.234946
vn 0.114467 0.965245 -0.234946
vn 0.788315 0.530102 0.312333
vn 0.788315 0.530102 0.312333
vn 0.788315 0.530102 0.312333
vn 0.788315 0.530102 0.312333
vn 0.817680 0.479392 0.318719
vn 0.817680 0.479392 0.318719
vn 0.817680 0.479392 0.318719
vn 0.668363 0.686015 0.287530
vn 0.668363 0.686015 0.287530
vn 0.668363 0.686015 0.287530
vn 0.709062 0.687958 0.154739
vn 0.709062 0.687958 0.154739
vn 0.709062 0.687958 0.154739
vn 0.408778 0.884902 0.223268
vn 0.408778 0.884902 0.223268
vn 0.408778 0.884902 0.223268
vn -0.851008 0.475705 0.222463
vn -0.851008 0.475705 0.222463
vn -0.851008 0.475705 0.222463
vn -0.885243 0.464608 -0.022010
vn -0.885243 0.464608 -0.022010
vn -0.885243 0.464608 -0.022010
vn -0.885243 0.464608 -0.022010
vn -0.521551 0.850362 0.069772
vn -0.521551 0.850362 0.069772
vn -0.521551 0.850362 0.069772
vn -0.270646 0.927645 -0.257341
vn -0.270646 0.927645 -0.257341
vn -0.270646 0.927645 -0.257341
vn -0.270646 0.927645 -0.257341
vn -0.822866 0.567081 -0.036196
vn -0.822866 0.567081 -0.036196
vn -0.822866 0.567081 -0.036196
vn -0.446282 0.822191 -0.353319
vn -0.446282 0.822191 -0.353319
vn -0.446282 0.822191 -0.353319
vn -0.685738 0.656162 -0.314985
vn -0.685738 0.656161 -0.314985
vn -0.685738 0.656161 -0.314985
vn -0.685738 0.656161 -0.314985
vn -0.692963 0.645805 -0.320528
vn -0.692963 0.645805 -0.320528
vn -0.692963 0.645805 -0.320528
vn -0.692963 0.645805 -0.320528
vn 0.732738 0.497791 -0.464003
vn 0.732738 0.497791 -0.464003
vn 0.732738 0.497791 -0.464003
vn 0.193602 0.979979 -0.046467
vn 0.193602 0.979979 -0.046467
vn 0.193602 0.979979 -0.046467
vn 0.502158 0.849924 -0.159579
vn 0.502158 0.849924 -0.159579
vn 0.502158 0.849924 -0.159579
vn 0.502158 0.849924 -0.159579
vn 0.592297 0.773314 -0.226207
vn 0.592297 0.773314 -0.226207
vn 0.592297 0.773314 -0.226207
vn 0.445890 0.845057 0.295060
vn 0.445890 0.845057 0.295060
vn 0.445890 0.845057 0.295060
vn 0.725333 0.684801 0.070283
vn 0.725333 0.684801 0.070283
vn 0.725333 0.684801 0.070283
vn 0.614477 0.783596 0.091633
vn 0.614477 0.783596 0.091633
vn 0.614477 0.783596 0.091633
vn 0.795798 0.590979 0.132097
vn 0.795798 0.590979 0.132097
vn 0.795798 0.590979 0.132097
vn -0.251081 0.956851 -0.146269
vn -0.251081 0.956851 -0.146269
vn -0.251081 0.956851 -0.146269
vn -0.546149 0.561674 -0.621485
vn -0.546149 0.561674 -0.621485
vn -0.546149 0.561674 -0.621485
vn -0.546149 0.561674 -0.621485
vn -0.308625 0.834779 -0.455956
vn -0.308625 0.834779 -0.455955
vn -0.308625 0.834779 -0.455956
vn -0.317989 0.744349 -0.587221
vn -0.317989 0.744349 -0.587221
vn -0.317989 0.744349 -0.587221
vn 0.295357 0.443095 -0.846422
vn 0.295357 0.443095 -0.846422
vn 0.295357 0.443095 -0.846422
vn 0.856251 0.438853 -0.272476
vn 0.856251 0.438853 -0.272476
vn 0.856251 0.438853 -0.272476
vn 0.070596 0.916594 -0.393537
vn 0.070596 0.916594 -0.393537
vn 0.070596 0.916594 -0.393537
vn 0.439780 0.877875 -0.189550
vn 0.439780 0.877875 -0.189550
vn 0.439780 0.877875 -0.189550
vn 0.594553 0.518174 -0.614820
vn 0.594553 0.518174 -0.614820
vn 0.594552 0.518174 -0.614820
vn 0.453832 0.770575 -0.447494
vn 0.453832 0.770574 -0.447494
vn 0.453832 0.770574 -0.447494
vn 0.690211 0.718860 -0.082762
vn 0.690211 0.718860 -0.082762
vn 0.690211 0.718860 -0.082762
vn 0.252818 0.950958 -0.178218
vn 0.252818 0.950958 -0.178218
vn 0.252818 0.950958 -0.178218
vn -0.037138 0.942750 -0.331427
vn -0.037138 0.942750 -0.331427
vn -0.037138 0.942750 -0.331427
vn 0.012033 0.964202 -0.264895
vn 0.012033 0.964202 -0.264895
vn 0.012033 0.964202 -0.264895
vn -0.151602 0.973271 -0.172514
vn -0.151602 0.973271 -0.172514
vn -0.151602 0.973271 -0.172514
vn -0.151602 0.973271 -0.172514
vn -0.012369 0.935465 -0.353203
vn -0.012369 0.935465 -0.353203
vn -0.012369 0.935465 -0.353203
vn 0.096562 0.956085 -0.276725
vn 0.096562 0.956085 -0.276725
vn 0.096562 0.956085 -0.276725
vn 0.420838 0.906301 -0.038905
vn 0.420838 0.906301 -0.038905
vn 0.420838 0.906301 -0.038905
vn 0.420838 0.906301 -0.038905
vn -0.152845 0.961089 -0.230102
vn -0.152845 0.961089 -0.230102
vn -0.152845 0.961089 -0.230102
vn -0.152845 0.961089 -0.230101
vn -0.727507 0.656430 0.199581
vn -0.727507 0.656430 0.199581
vn -0.727507 0.656430 0.199581
vn -0.727507 0.656430 0.199581
vn -0.727832 0.637118 0.253655
vn -0.727832 0.637118 0.253655
vn -0.727832 0.637118 0.253655
vn -0.657720 0.752952 0.021615
vn -0.657720 0.752952 0.021615
vn -0.657720 0.752952 0.021615
vn -0.657720 0.752952 0.021615
vn 0.405737 0.892314 0.197873
vn 0.405737 0.892314 0.197873
vn 0.405737 0.892314 0.197873
vn 0.405737 0.892314 0.197873
vn 0.230832 0.972553 -0.029287
vn 0.230832 0.972553 -0.029287
vn 0.230832 0.972553 -0.029287
vn 0.443449 0.892457 0.082905
vn 0.443449 0.892457 0.082905
vn 0.443449 0.892457 0.082905
vn 0.443449 0.892457 0.082905
vn 0.582834 0.794815 0.169041
vn 0.582833 0.794815 0.169041
vn 0.582833 0.794815 0.169041
vn 0.582833 0.794815 0.169041
vn 0.077402 0.995986 -0.044951
vn 0.077402 0.995986 -0.044951
vn 0.077402 0.995986 -0.044951
vn 0.077402 0.995986 -0.044951
vn 0.141331 0.985019 -0.098805
vn 0.141331 0.985019 -0.098805
vn 0.141331 0.985019 -0.098805
vn -0.790738 0.612111 0.007312
vn -0.790738 0.612111 0.007312
vn -0.790738 0.612111 0.007312
vn 0.816748 0.491743 0.301847
vn 0.816748 0.491743 0.301847
vn 0.816748 0.491743 0.301847
vn -0.548111 0.679708 -0.487414
vn -0.548111 0.679708 -0.487414
vn -0.548111 0.679707 -0.487414
vn 0.064380 0.894567 0.442272
vn 0.064380 0.894567 0.442272
vn 0.064380 0.894567 0.442272
vn -0.822867 0.567080 -0.036196
vn -0.822867 0.567080 -0.036196
vn -0.822867 0.567080 -0.036196
vn -0.685737 0.656162 -0.314985
vn -0.685737 0.656162 -0.314985
vn -0.685737 0.656163 -0.314985
vn -0.685737 0.656162 -0.314985
s off
f 1/7/1 11/1/2 12/3/3
f 11/1/4 13/2/5 12/3/6
f 12/3/7 13/2/8 2/6/9
f 1/80/10 14/81/11 11/82/12
f 14/35/13 4/36/14 15/37/15
f 14/35/16 15/37/17 11/40/18
f 1/80/19 16/83/20 14/81/21
f 16/83/22 17/85/23 14/81/24
f 14/35/25 17/38/26 4/36/27
f 1/80/28 18/84/29 16/83/30
f 1/80/31 12/86/32 18/84/33
f 12/3/34 2/6/35 19/11/36
f 12/3/37 19/11/38 18/18/39
f 18/18/40 19/11/41 5/26/42
f 2/6/43 13/2/44 20/9/45 51/10/46
f 39/8/47 40/5/48 3/12/49 21/13/50
f 38/98/51 39/100/52 21/99/53
f 37/97/54 38/98/55 21/99/56
f 3/51/57 42/44/58 43/43/59 22/49/60
f 15/37/61 4/36/62 23/39/63
f 43/43/64 44/42/65 22/49/66
f 22/49/67 44/42/68 45/47/69
f 4/36/70 17/38/71 24/41/72
f 5/26/73 19/11/74 25/25/75
f 19/11/76 2/6/77 52/16/78 26/17/79
f 19/11/80 26/17/81 25/25/82
f 25/25/83 26/17/84 55/27/85 6/28/86
f 49/15/87 51/10/88 20/9/89
f 20/9/90 7/21/91 27/22/92
f 53/23/93 27/22/94 26/17/95 50/24/96
f 26/17/97 27/22/98 54/30/99 55/27/100
f 47/53/101 22/49/102 21/54/103
f 22/60/104 45/61/105 46/62/106
f 22/49/107 46/55/108 36/56/109 21/54/110
f 21/54/111 36/56/112 37/57/113
f 4/36/114 24/41/115 23/39/116
f 24/41/117 9/50/118 29/46/119
f 24/41/120 29/46/121 23/39/122
f 23/39/123 29/46/124 8/48/125
f 25/25/126 6/28/127 30/31/128
f 56/34/129 54/30/130 27/22/131 31/33/132
f 27/22/133 7/21/134 32/29/135
f 27/22/136 32/29/137 31/33/138
f 31/87/139 32/88/140 10/89/141
f 48/94/142 28/95/143 32/96/144
f 28/64/145 8/63/146 33/65/147
f 28/64/148 33/65/149 32/67/150
f 32/88/151 33/90/152 10/89/153
f 8/91/154 29/92/155 33/93/156
f 29/46/157 9/50/158 34/52/159
f 29/76/160 34/74/161 33/75/162
f 33/75/163 34/74/164 10/73/165
f 34/74/166 35/72/167 10/73/168
f 30/68/169 6/69/170 56/70/171 31/71/172
f 30/68/173 31/71/174 35/72/175
f 35/72/176 31/71/177 10/73/178
f 37/57/179 36/56/180 28/58/181 7/59/182
f 20/9/183 38/14/184 37/20/185 7/21/186
f 13/2/187 39/8/188 38/14/189 20/9/190
f 13/2/191 40/5/192 39/8/193
f 11/1/194 41/4/195 40/5/196 13/2/197
f 11/40/198 15/37/199 42/104/200 41/45/201
f 43/77/202 42/78/203 15/79/204
f 15/37/205 23/39/206 44/42/207 43/43/208
f 45/47/209 44/42/210 23/39/211 8/48/212
f 46/62/213 45/61/214 8/63/215 28/64/216
f 36/66/217 46/62/218 28/64/219
f 3/12/220 47/19/221 21/13/222
f 3/51/223 22/49/224 47/53/225
f 7/21/226 48/32/227 32/29/228
f 7/101/229 28/102/230 48/103/231
f 52/16/232 50/24/233 26/17/234
f 20/9/235 27/22/236 53/23/237 49/15/238
